<svg version="1.1" id="Layer_1" xmlns="http://www.w3.org/2000/svg" xmlns:xlink="http://www.w3.org/1999/xlink" x="0px" y="0px"
	 width="100%" viewBox="0 0 1536 1024" enable-background="new 0 0 1536 1024" xml:space="preserve">
<path fill="#000000" opacity="1.000000" stroke="none" 
	d="
M991.000000,1025.000000 
	C660.666687,1025.000000 330.833344,1025.000000 1.000000,1025.000000 
	C1.000000,683.666687 1.000000,342.333344 1.000000,1.000000 
	C513.000000,1.000000 1025.000000,1.000000 1537.000000,1.000000 
	C1537.000000,342.333344 1537.000000,683.666687 1537.000000,1025.000000 
	C1355.166626,1025.000000 1173.333374,1025.000000 991.000000,1025.000000 
M1172.006226,561.005066 
	C1172.006226,561.005066 1172.009888,561.088928 1172.547119,560.946167 
	C1172.727661,560.637024 1172.908203,560.327881 1173.015259,560.014771 
	C1173.015259,560.014771 1173.020020,560.088257 1173.554565,559.951416 
	C1173.731689,559.644104 1173.908813,559.336792 1174.014893,559.015442 
	C1174.014893,559.015442 1174.028076,559.086609 1174.558594,558.949280 
	C1174.734253,558.643738 1174.909790,558.338257 1175.014648,558.014771 
	C1175.014648,558.014771 1175.032227,558.085632 1175.559937,557.948608 
	C1175.734863,557.644592 1175.909668,557.340515 1176.013794,557.013916 
	C1176.013794,557.013916 1176.035889,557.084900 1176.562378,556.947327 
	C1176.736572,556.643555 1176.910767,556.339783 1177.013916,556.013977 
	C1177.013916,556.013977 1177.036011,556.084839 1177.561768,555.947693 
	C1177.735718,555.644714 1177.909790,555.341736 1178.006714,554.999878 
	C1178.006714,554.999878 1178.066650,555.061951 1178.698364,554.845703 
	C1179.489258,553.582703 1180.280029,552.319702 1181.000000,551.000000 
	C1181.000000,551.000000 1181.064819,551.063293 1181.690796,550.851807 
	C1182.155518,549.912476 1182.620239,548.973145 1183.010132,548.003052 
	C1183.010132,548.003052 1183.059326,548.067444 1183.670776,547.856262 
	C1183.811523,547.236511 1183.952271,546.616821 1184.019287,546.008179 
	C1184.019287,546.008179 1184.036255,546.080872 1184.654785,545.868103 
	C1184.801270,545.243530 1184.947754,544.619019 1185.004028,543.923279 
	C1185.004028,543.923279 1184.916504,543.997620 1185.259644,543.928406 
	C1185.486938,543.838074 1185.659546,543.685913 1186.049072,542.742065 
	C1189.052124,536.519348 1192.898315,530.548645 1194.852295,524.012268 
	C1197.509033,515.124084 1198.719971,505.803619 1200.715942,495.965302 
	C1200.469360,489.434418 1200.767944,482.823151 1199.820557,476.395538 
	C1198.897461,470.131775 1196.700073,464.055847 1195.006348,457.144775 
	C1190.284790,448.503845 1185.563110,439.862915 1180.962891,430.529633 
	C1180.662598,429.998932 1180.362305,429.468262 1180.009766,428.999481 
	C1180.009766,428.999481 1180.085449,428.970001 1179.945312,428.435791 
	C1179.635864,428.261169 1179.326416,428.086548 1179.013550,427.986847 
	C1179.013550,427.986847 1179.088501,427.984253 1178.942993,427.444092 
	C1178.629272,427.267609 1178.315674,427.091125 1177.994751,427.007080 
	C1177.994751,427.007080 1178.087036,427.016937 1177.992554,426.373352 
	C1177.682495,425.894226 1177.372559,425.415100 1177.008545,424.999115 
	C1177.008545,424.999115 1177.084717,424.965729 1176.946167,424.436340 
	C1176.640137,424.262238 1176.334106,424.088165 1176.014893,423.985199 
	C1176.014893,423.985199 1176.086060,423.972107 1175.947998,423.439514 
	C1175.640503,423.264252 1175.332886,423.089020 1175.004272,422.986725 
	C1175.004272,422.986725 1175.068237,422.945679 1174.858398,422.318237 
	C1172.915039,420.516815 1170.971558,418.715424 1169.017212,416.986572 
	C1169.017212,416.986572 1169.090576,416.986664 1168.944092,416.449371 
	C1168.633789,416.269073 1168.323608,416.088776 1168.011719,415.987518 
	C1168.011719,415.987518 1168.090698,415.983765 1167.951172,415.445251 
	C1167.641235,415.266205 1167.331177,415.087158 1167.017212,414.982483 
	C1167.017212,414.982483 1167.091675,414.978180 1166.950928,414.444122 
	C1166.643433,414.265625 1166.335938,414.087158 1166.018066,413.981842 
	C1166.018066,413.981842 1166.091064,413.971008 1165.950317,413.442352 
	C1165.645996,413.265015 1165.341553,413.087646 1165.004883,412.993469 
	C1165.004883,412.993469 1165.066284,412.928741 1164.866699,412.339172 
	C1164.272339,412.270935 1163.678101,412.202698 1162.455322,411.837616 
	C1154.932617,406.899689 1147.409790,401.961731 1139.856567,396.365234 
	C1139.232666,396.214478 1138.608643,396.063690 1137.998779,395.993988 
	C1137.998779,395.993988 1138.079590,395.978607 1137.874756,395.354187 
	C1137.248657,395.205231 1136.622437,395.056274 1136.007202,394.983337 
	C1136.007202,394.983337 1136.082397,394.967346 1135.871582,394.348846 
	C1135.248413,394.201141 1134.625244,394.053406 1134.009277,393.978394 
	C1134.009277,393.978394 1134.078369,393.954590 1133.807007,393.283600 
	C1132.860229,393.161804 1131.913452,393.040009 1130.990601,393.005585 
	C1130.990601,393.005585 1131.078735,392.984406 1130.784668,392.273499 
	C1129.911499,391.866852 1129.066406,391.379395 1128.161133,391.065643 
	C1112.120850,385.506958 1095.494629,385.701172 1078.853149,386.117706 
	C1078.502075,386.126495 1078.164917,386.691559 1077.036987,387.012177 
	C1076.448730,387.294220 1075.883423,387.753082 1075.268921,387.832733 
	C1054.008667,390.588165 1036.268677,400.850311 1020.880554,414.943451 
	C1013.767273,421.458221 1007.880066,429.664307 1002.771790,437.928619 
	C995.997070,448.888916 990.975281,460.813324 989.159790,474.345245 
	C989.118530,475.998901 989.304382,477.695862 988.998413,479.298981 
	C987.286438,488.268311 987.226746,497.160065 989.997498,506.821350 
	C992.032532,513.950684 994.067505,521.080078 996.093506,528.945557 
	C996.712158,530.656433 997.330811,532.367371 997.977539,534.010376 
	C997.977539,534.010376 997.904053,534.007385 998.006653,534.650391 
	C998.323547,535.127502 998.640442,535.604675 998.977905,536.010986 
	C998.977905,536.010986 998.904602,536.002930 999.006775,536.643799 
	C999.319763,537.122070 999.632751,537.600342 999.977539,538.011292 
	C999.977539,538.011292 999.903198,538.012756 999.995300,538.651978 
	C1000.311035,539.126831 1000.626770,539.601685 1000.986755,540.008911 
	C1000.986755,540.008911 1000.910156,540.034790 1001.062683,540.564087 
	C1001.371887,540.738342 1001.681091,540.912659 1001.998779,540.998535 
	C1001.998779,540.998535 1001.910278,540.990051 1002.011963,541.635132 
	C1002.324829,542.116638 1002.637695,542.598145 1002.977234,543.011047 
	C1002.977234,543.011047 1002.903748,543.006897 1003.000244,543.645569 
	C1003.313171,544.122253 1003.626099,544.598938 1003.987549,545.007019 
	C1003.987549,545.007019 1003.909729,545.038574 1003.991638,545.698792 
	C1004.642273,546.492065 1005.292908,547.285339 1005.984619,548.009644 
	C1005.984619,548.009644 1005.908447,548.034851 1005.993713,548.691772 
	C1006.635437,549.482117 1007.277161,550.272461 1008.002441,551.005005 
	C1008.002441,551.005005 1007.915161,551.054443 1008.058899,551.572327 
	C1008.359619,551.744629 1008.660339,551.916931 1008.983459,552.016663 
	C1008.983459,552.016663 1008.911133,552.039795 1009.060852,552.564758 
	C1009.366211,552.740051 1009.671631,552.915405 1009.987976,553.007812 
	C1009.987976,553.007812 1009.904663,553.001099 1009.994202,553.635132 
	C1010.300354,554.108948 1010.606567,554.582825 1010.995361,555.000000 
	C1010.995361,555.000000 1010.916077,555.056641 1011.059998,555.574646 
	C1011.361206,555.746460 1011.662415,555.918213 1011.982910,556.017456 
	C1011.982910,556.017456 1011.910583,556.037720 1012.056030,556.566833 
	C1012.363403,556.741455 1012.670837,556.916138 1012.983215,557.017273 
	C1012.983215,557.017273 1012.910217,557.026794 1012.995667,557.740906 
	C1013.660645,558.189819 1014.325623,558.638733 1014.845642,559.300415 
	C1014.845642,559.300415 1015.037720,559.471924 1015.290588,559.859558 
	C1015.772888,560.207825 1016.255249,560.556091 1016.982727,561.536255 
	C1017.298096,562.043518 1017.613464,562.550842 1017.996094,562.998718 
	C1017.996094,562.998718 1017.917664,563.042786 1018.055237,563.563599 
	C1018.355713,563.736389 1018.656250,563.909180 1018.988708,564.011108 
	C1018.988708,564.011108 1018.917664,564.042847 1019.054932,564.563782 
	C1019.355530,564.736572 1019.656067,564.909302 1020.000549,565.002441 
	C1020.000549,565.002441 1019.948853,565.076721 1020.165405,565.709351 
	C1021.763977,566.833069 1023.362549,567.956787 1024.984253,569.011353 
	C1024.984253,569.011353 1024.912964,569.026184 1025.050537,569.557678 
	C1025.356689,569.733582 1025.662720,569.909546 1025.985229,570.014587 
	C1025.985229,570.014587 1025.914307,570.030579 1026.051758,570.560242 
	C1026.357178,570.735229 1026.662476,570.910217 1026.985107,571.014465 
	C1026.985107,571.014465 1026.914185,571.030945 1027.050903,571.558899 
	C1027.354980,571.733826 1027.658936,571.908691 1027.986572,572.013123 
	C1027.986572,572.013123 1027.915771,572.035645 1028.051758,572.560242 
	C1028.353638,572.734070 1028.655518,572.907959 1029.001099,573.003845 
	C1029.001099,573.003845 1028.943237,573.071411 1029.151978,573.679810 
	C1029.769653,573.817017 1030.387451,573.954224 1030.997559,574.005981 
	C1030.997559,574.005981 1030.912354,574.015381 1031.046021,574.548950 
	C1031.351318,574.726807 1031.656738,574.904663 1031.997192,575.008911 
	C1031.997192,575.008911 1031.932617,575.058716 1032.144165,575.684937 
	C1033.081665,576.150085 1034.019165,576.615295 1034.999878,577.005066 
	C1034.999878,577.005066 1034.936157,577.064087 1035.167725,577.712830 
	C1045.654419,586.169189 1057.376953,591.541443 1071.008423,591.999451 
	C1071.008423,591.999451 1070.922119,592.023804 1071.244141,592.759216 
	C1072.843994,592.866455 1074.443726,592.973694 1076.011353,592.992798 
	C1076.011353,592.992798 1075.921997,593.021729 1076.285645,593.791870 
	C1078.919678,593.821838 1081.553711,593.851807 1084.367554,594.041260 
	C1084.367554,594.041260 1084.566650,593.906494 1085.129639,594.648254 
	C1091.085815,594.482971 1097.041870,594.317688 1103.859497,594.018616 
	C1106.278442,593.687134 1108.697510,593.355713 1111.916504,592.931946 
	C1113.637085,592.631287 1115.357544,592.330688 1116.994507,592.004089 
	C1116.994507,592.004089 1116.969971,592.088135 1117.812256,591.964844 
	C1121.234619,590.986694 1124.656982,590.008545 1127.998291,589.008667 
	C1127.998291,589.008667 1127.978394,589.090210 1128.793335,588.975281 
	C1132.221313,587.664551 1135.649414,586.353882 1139.009399,585.018738 
	C1139.009399,585.018738 1139.013672,585.090820 1139.800781,585.002014 
	C1146.256592,582.443054 1152.873535,580.211609 1159.083740,577.153809 
	C1161.364258,576.030884 1164.961304,575.157043 1164.395630,570.462830 
	C1164.162109,568.525696 1167.526489,566.155029 1169.769531,563.850159 
	C1170.183960,563.299377 1170.598389,562.748596 1171.534180,561.960815 
	C1171.719604,561.641846 1171.904907,561.322876 1172.006226,561.005066 
M590.680725,412.073029 
	C599.254211,412.073029 607.827698,412.073029 616.401245,412.073029 
	C607.797241,411.004791 599.206665,410.985413 590.616943,411.060974 
	C590.178711,411.064819 589.747681,411.884338 589.061523,413.162781 
	C589.060852,417.289429 588.937317,421.420837 589.095398,425.541382 
	C589.242249,429.369171 589.689636,433.185455 590.434998,437.759583 
	C600.257141,437.877991 610.079224,437.996368 619.924255,439.037384 
	C619.923462,471.333527 619.903687,503.629730 619.978088,535.925720 
	C619.981812,537.533508 620.804382,539.139526 621.001465,539.857117 
	C621.001465,533.516357 620.993347,526.386841 621.002869,519.257324 
	C621.036926,493.786102 621.093201,468.314850 621.079407,442.843658 
	C621.078491,441.112183 620.568726,439.380981 619.646545,437.068115 
	C609.747742,437.062683 599.848938,437.057220 589.985840,436.104980 
	C589.906616,428.187836 589.827454,420.270660 590.680725,412.073029 
M605.959106,574.295288 
	C599.874634,559.664124 593.829285,545.016479 587.696533,530.405579 
	C577.927246,507.130768 568.154358,483.857208 558.281128,460.626404 
	C549.104248,439.034027 539.652649,417.557526 530.588379,395.918488 
	C523.486633,378.964752 516.780090,361.845306 509.926666,344.787964 
	C508.641205,341.588593 506.875977,339.615173 502.921387,339.779633 
	C495.604004,340.084015 488.264618,339.969177 480.936890,339.860870 
	C478.111145,339.819122 476.606567,340.561951 475.439392,343.517792 
	C469.796936,357.807526 463.869873,371.987549 457.873169,386.134155 
	C449.292908,406.375549 440.545532,426.546021 431.905762,446.762329 
	C426.009033,460.560089 420.163910,474.380005 414.314331,488.197906 
	C406.517853,506.614960 398.804230,525.067383 390.928436,543.450378 
	C386.394806,554.032349 381.611298,564.507385 376.170685,575.338806 
	C377.357025,575.871338 378.538208,576.851990 379.730469,576.865601 
	C389.488708,576.977417 399.249237,576.932739 409.008484,576.859436 
	C409.996521,576.852051 410.980835,576.343079 412.128845,575.433289 
	C414.787109,569.203613 417.560059,563.019958 420.078400,556.734192 
	C424.547180,545.580322 428.598694,534.252441 433.312195,523.205383 
	C438.295258,511.526611 437.116577,511.912872 449.514252,512.072998 
	C451.668793,512.100830 453.824646,512.023987 456.320648,512.813110 
	C480.579407,512.876221 504.838165,512.947144 529.096924,512.959961 
	C529.741211,512.960327 530.385925,512.329773 531.946655,512.059082 
	C534.771545,512.069214 537.598694,512.011719 540.420654,512.107300 
	C543.617432,512.215637 546.033569,513.440552 547.311462,516.686829 
	C552.498779,529.864075 557.688843,543.042236 563.091675,556.131775 
	C565.894714,562.922668 569.144470,569.529358 572.803040,576.745728 
	C583.575073,576.746521 594.347229,576.761230 605.118530,576.676208 
	C605.418762,576.673889 605.710632,575.604675 605.959106,574.295288 
M644.449951,365.918579 
	C646.887634,365.918579 649.325256,365.918579 652.115051,365.918579 
	C652.115051,381.381165 652.115051,396.302155 652.115051,411.223145 
	C652.265869,411.220428 652.416748,411.217712 652.567566,411.214996 
	C652.567566,395.844849 652.567566,380.474701 652.567566,365.368896 
	C641.621765,365.368896 631.016418,365.368896 620.348145,365.368896 
	C620.348145,380.812103 620.348145,395.993591 620.348145,411.175049 
	C620.579468,411.176147 620.810791,411.177246 621.042114,411.178345 
	C621.042114,396.118408 621.042114,381.058472 621.042114,365.918091 
	C628.827209,365.918091 636.145630,365.918091 644.449951,365.918579 
M652.908020,447.565521 
	C652.908020,444.634979 652.908020,441.704468 652.908020,438.773926 
	C652.684082,438.785645 652.460144,438.797363 652.236206,438.809082 
	C652.236206,469.321625 652.236206,499.834137 652.236206,530.346680 
	C652.459290,530.346924 652.682312,530.347168 652.905396,530.347473 
	C652.905396,503.080597 652.905396,475.813782 652.908020,447.565521 
z"/>
<path fill="#202020" opacity="1.000000" stroke="none" 
	d="
M455.979889,511.995483 
	C453.824646,512.023987 451.668793,512.100830 449.514252,512.072998 
	C437.116577,511.912872 438.295258,511.526611 433.312195,523.205383 
	C428.598694,534.252441 424.547180,545.580322 420.078400,556.734192 
	C417.560059,563.019958 414.787109,569.203613 411.581146,575.748596 
	C400.834137,576.083374 390.634644,576.138123 380.435852,576.074036 
	C379.268524,576.066711 378.105377,575.394470 376.940277,575.030518 
	C381.611298,564.507385 386.394806,554.032349 390.928436,543.450378 
	C398.804230,525.067383 406.517853,506.614960 414.314331,488.197906 
	C420.163910,474.380005 426.009033,460.560089 431.905762,446.762329 
	C440.545532,426.546021 449.292908,406.375549 457.873169,386.134155 
	C463.869873,371.987549 469.796936,357.807526 475.439392,343.517792 
	C476.606567,340.561951 478.111145,339.819122 480.936890,339.860870 
	C488.264618,339.969177 495.604004,340.084015 502.921387,339.779633 
	C506.875977,339.615173 508.641205,341.588593 509.926666,344.787964 
	C516.780090,361.845306 523.486633,378.964752 530.588379,395.918488 
	C539.652649,417.557526 549.104248,439.034027 558.281128,460.626404 
	C568.154358,483.857208 577.927246,507.130768 587.696533,530.405579 
	C593.829285,545.016479 599.874634,559.664124 605.898193,574.931152 
	C605.555237,575.701660 605.273315,575.836304 604.873413,575.822876 
	C604.498291,575.802307 604.240967,575.929749 603.542725,576.171082 
	C600.073181,576.206482 597.044617,576.127991 593.876221,575.812500 
	C593.154785,575.725769 592.573303,575.875854 591.536377,576.141174 
	C585.054443,576.172729 579.027954,576.089172 572.894104,575.844910 
	C572.549805,575.891968 572.312866,576.099731 572.078003,576.249756 
	C572.080017,576.191956 572.192444,576.219238 572.192444,576.219238 
	C569.144470,569.529358 565.894714,562.922668 563.091675,556.131775 
	C557.688843,543.042236 552.498779,529.864075 547.311462,516.686829 
	C546.033569,513.440552 543.617432,512.215637 540.420654,512.107300 
	C537.598694,512.011719 534.771545,512.069214 531.019958,511.979675 
	C505.388794,511.932037 480.684357,511.963776 455.979889,511.995483 
M462.513977,483.971863 
	C486.121399,483.971863 509.728790,483.971863 534.373779,483.971863 
	C519.859131,447.953674 505.689972,412.792877 491.704681,378.088318 
	C477.598511,413.095520 463.452789,448.200928 449.038574,483.972656 
	C453.612915,483.972656 457.566864,483.972656 462.513977,483.971863 
z"/>
<path fill="#0EA0D7" opacity="1.000000" stroke="none" 
	d="
M1111.116455,593.024231 
	C1108.697510,593.355713 1106.278442,593.687134 1102.967529,593.992493 
	C1096.239136,593.946411 1090.402954,593.926453 1084.566650,593.906494 
	C1084.566650,593.906494 1084.367554,594.041260 1083.934570,593.719604 
	C1080.975098,593.272522 1078.448486,593.147095 1075.921997,593.021729 
	C1075.921997,593.021729 1076.011353,592.992798 1075.823242,592.695557 
	C1074.064087,592.273499 1072.493042,592.148682 1070.922119,592.023804 
	C1070.922119,592.023804 1071.008423,591.999451 1070.873413,591.693359 
	C1060.387695,587.041382 1050.047119,582.671204 1039.675293,578.376404 
	C1038.172241,577.754028 1036.519531,577.492615 1034.936157,577.064087 
	C1034.936157,577.064087 1034.999878,577.005066 1035.186035,576.669434 
	C1034.225708,575.908813 1033.079224,575.483765 1031.932617,575.058716 
	C1031.932617,575.058716 1031.997192,575.008911 1032.156738,574.683472 
	C1031.848389,574.243896 1031.380371,574.129639 1030.912354,574.015381 
	C1030.912354,574.015381 1030.997559,574.005981 1030.980957,573.617310 
	C1030.290527,573.176208 1029.616943,573.123779 1028.943237,573.071411 
	C1028.943237,573.071411 1029.001099,573.003845 1029.190063,572.648132 
	C1028.891235,572.206848 1028.403564,572.121216 1027.915771,572.035645 
	C1027.915771,572.035645 1027.986572,572.013123 1028.153687,571.663452 
	C1027.851929,571.219543 1027.383057,571.125244 1026.914185,571.030945 
	C1026.914185,571.030945 1026.985107,571.014465 1027.129883,570.665955 
	C1026.821167,570.221802 1026.367676,570.126160 1025.914307,570.030579 
	C1025.914307,570.030579 1025.985229,570.014587 1026.123291,569.674561 
	C1025.811768,569.231750 1025.362427,569.128967 1024.912964,569.026184 
	C1024.912964,569.026184 1024.984253,569.011353 1025.154541,568.697754 
	C1023.532898,567.281738 1021.740906,566.179260 1019.948853,565.076721 
	C1019.948853,565.076721 1020.000549,565.002441 1020.196777,564.633423 
	C1019.901184,564.190613 1019.409424,564.116760 1018.917664,564.042847 
	C1018.917664,564.042847 1018.988708,564.011108 1019.190796,563.637817 
	C1018.901184,563.190552 1018.409424,563.116699 1017.917664,563.042847 
	C1017.917664,563.042786 1017.996094,562.998718 1018.323792,562.743469 
	C1018.013550,561.960266 1017.375549,561.432312 1016.737549,560.904358 
	C1016.255249,560.556091 1015.772888,560.207825 1015.493408,559.515259 
	C1017.585083,557.765137 1019.473938,556.359253 1021.619202,555.131409 
	C1029.503174,561.311768 1036.541748,568.330811 1044.856079,573.148010 
	C1091.471436,600.156128 1151.319824,584.388916 1179.270020,538.231689 
	C1186.644165,526.053955 1190.708252,512.842468 1191.126343,499.011688 
	C1189.210205,497.286804 1187.823486,495.391876 1186.924561,493.288513 
	C1186.219116,491.637604 1186.251465,489.688049 1185.722046,487.942078 
	C1183.736328,481.392700 1180.245361,479.379486 1173.138672,480.786835 
	C1173.835205,487.607391 1169.974854,491.295502 1164.100098,493.872406 
	C1160.951660,495.253418 1158.172363,497.475830 1154.900757,499.459351 
	C1152.808228,499.169891 1150.391724,499.313934 1149.403442,498.195679 
	C1146.979736,495.453217 1144.968994,492.259583 1143.238281,489.009918 
	C1140.098511,483.115173 1137.283325,477.047668 1134.669800,471.050171 
	C1135.681885,471.030914 1136.356934,471.013794 1137.291870,471.208984 
	C1142.298096,479.379120 1147.044434,487.336975 1152.184326,495.954742 
	C1157.546509,493.078217 1163.291260,490.465729 1168.426025,486.959747 
	C1169.994141,485.889008 1170.316895,482.354340 1170.274292,479.964783 
	C1170.261841,479.273102 1167.021606,478.169556 1165.218750,478.076324 
	C1161.369263,477.877228 1157.964355,472.941254 1159.016968,470.644592 
	C1164.856445,472.708527 1170.431763,475.937103 1176.224976,476.392334 
	C1182.732788,476.903687 1185.943604,479.853699 1187.965454,485.218536 
	C1189.271606,488.684265 1190.276245,492.263611 1191.416016,495.792023 
	C1191.972168,495.701385 1192.528198,495.610779 1193.084229,495.520142 
	C1192.194702,486.998932 1191.858154,478.375183 1190.299805,469.978058 
	C1187.122559,452.855774 1178.187012,438.544586 1167.034058,425.126007 
	C1168.131470,423.075317 1169.182739,421.417908 1170.203125,419.800690 
	C1170.172119,419.840851 1170.070923,419.835571 1170.198730,420.151489 
	C1170.735474,420.636963 1171.144653,420.806519 1171.804199,421.195923 
	C1173.059326,421.925720 1174.063721,422.435699 1175.068237,422.945679 
	C1175.068237,422.945679 1175.004272,422.986725 1174.889282,423.328857 
	C1175.211548,423.771362 1175.648804,423.871735 1176.086060,423.972107 
	C1176.086060,423.972107 1176.014893,423.985199 1175.883057,424.338928 
	C1176.195679,424.783661 1176.640137,424.874695 1177.084717,424.965729 
	C1177.084717,424.965729 1177.008545,424.999115 1176.739624,425.248352 
	C1177.009521,426.004028 1177.548218,426.510468 1178.087036,427.016907 
	C1178.087036,427.016937 1177.994751,427.007080 1177.974609,427.305847 
	C1178.332397,427.731171 1178.710449,427.857727 1179.088501,427.984253 
	C1179.088501,427.984253 1179.013550,427.986847 1178.932617,428.326752 
	C1179.263062,428.767761 1179.674194,428.868896 1180.085449,428.970001 
	C1180.085449,428.970001 1180.009766,428.999481 1179.751953,429.226990 
	C1179.943359,430.043671 1180.392456,430.632843 1180.841431,431.221985 
	C1185.563110,439.862915 1190.284790,448.503845 1194.982422,457.932556 
	C1196.484863,467.965454 1198.068115,477.201721 1199.507202,486.460419 
	C1200.031860,489.835632 1200.213135,493.264252 1200.551025,496.668518 
	C1198.719971,505.803619 1197.509033,515.124084 1194.852295,524.012268 
	C1192.898315,530.548645 1189.052124,536.519348 1185.814209,543.263428 
	C1185.413452,544.026917 1185.192383,544.097900 1184.916504,543.997620 
	C1184.916504,543.997620 1185.004028,543.923279 1184.691650,544.030701 
	C1184.264893,544.785706 1184.150513,545.433289 1184.036255,546.080872 
	C1184.036255,546.080872 1184.019287,546.008179 1183.647461,546.022766 
	C1183.203613,546.714050 1183.131470,547.390747 1183.059326,548.067444 
	C1183.059326,548.067444 1183.010132,548.003052 1182.659790,547.859741 
	C1181.894531,548.832031 1181.479736,549.947693 1181.064819,551.063293 
	C1181.064819,551.063293 1181.000000,551.000000 1180.710938,550.755188 
	C1179.636719,552.027527 1178.851685,553.544739 1178.066650,555.061951 
	C1178.066650,555.061951 1178.006714,554.999878 1177.652466,554.834839 
	C1177.210815,555.141479 1177.123413,555.613159 1177.036133,556.084839 
	C1177.036011,556.084839 1177.013916,556.013977 1176.657227,555.854980 
	C1176.212402,556.158936 1176.124146,556.621887 1176.035889,557.084900 
	C1176.035889,557.084900 1176.013794,557.013916 1175.662842,556.854492 
	C1175.218750,557.158630 1175.125488,557.622131 1175.032227,558.085632 
	C1175.032227,558.085632 1175.014648,558.014771 1174.671265,557.871826 
	C1174.227905,558.181396 1174.128052,558.634033 1174.028076,559.086609 
	C1174.028076,559.086609 1174.014893,559.015442 1173.686279,558.888367 
	C1173.245117,559.203613 1173.132568,559.645935 1173.020020,560.088257 
	C1173.020020,560.088257 1173.015259,560.014771 1172.706421,559.936768 
	C1172.268311,560.268860 1172.139160,560.678894 1172.009888,561.088928 
	C1172.009888,561.088928 1172.006226,561.005066 1171.701172,560.988464 
	C1171.268433,561.380493 1171.140503,561.789185 1171.012695,562.197815 
	C1170.598389,562.748596 1170.183960,563.299377 1169.150635,563.847046 
	C1158.858032,570.531372 1149.180786,577.213806 1139.527100,583.930176 
	C1139.230347,584.136597 1139.179321,584.695984 1139.013672,585.090820 
	C1139.013672,585.090820 1139.009399,585.018738 1138.689575,584.814575 
	C1134.906006,586.103638 1131.442139,587.596924 1127.978394,589.090210 
	C1127.978394,589.090210 1127.998291,589.008667 1127.652222,588.855164 
	C1123.860718,589.830505 1120.415405,590.959290 1116.969971,592.088135 
	C1116.969971,592.088135 1116.994507,592.004089 1116.659424,591.844788 
	C1114.588257,592.131714 1112.852417,592.578003 1111.116455,593.024231 
z"/>
<path fill="#42C17D" opacity="1.000000" stroke="none" 
	d="
M1170.234009,419.760498 
	C1169.182739,421.417908 1168.131470,423.075317 1166.721191,424.930908 
	C1148.449097,407.155487 1127.020142,396.093262 1101.641602,394.181824 
	C1061.382568,391.149567 1031.057373,408.651794 1009.671936,441.859070 
	C996.466064,462.365204 993.152832,485.225281 998.191772,509.163788 
	C1000.507690,520.166016 1004.391052,530.560181 1010.763123,539.903137 
	C1014.220032,544.971924 1017.824768,549.939880 1021.362793,554.953369 
	C1019.473938,556.359253 1017.585083,557.765137 1015.366943,559.321472 
	C1015.037720,559.471924 1014.845642,559.300415 1014.932251,558.845642 
	C1014.315918,557.936218 1013.613037,557.481506 1012.910217,557.026794 
	C1012.910217,557.026794 1012.983215,557.017273 1013.027710,556.698242 
	C1012.685059,556.265381 1012.297791,556.151550 1011.910583,556.037720 
	C1011.910583,556.037720 1011.982910,556.017456 1012.078369,555.661621 
	C1011.754639,555.222717 1011.335327,555.139709 1010.916077,555.056641 
	C1010.916077,555.056641 1010.995361,555.000000 1011.285156,554.764221 
	C1011.018250,554.019348 1010.461426,553.510193 1009.904663,553.001099 
	C1009.904663,553.001099 1009.987976,553.007812 1010.032898,552.690552 
	C1009.688904,552.262085 1009.300049,552.150940 1008.911133,552.039795 
	C1008.911133,552.039795 1008.983459,552.016663 1009.087463,551.664001 
	C1008.766052,551.225708 1008.340576,551.140076 1007.915161,551.054443 
	C1007.915161,551.054443 1008.002441,551.005005 1008.266113,550.744751 
	C1007.656006,549.667908 1006.782227,548.851379 1005.908447,548.034851 
	C1005.908447,548.034851 1005.984619,548.009644 1006.159302,547.700867 
	C1005.525879,546.607605 1004.717834,545.823059 1003.909729,545.038574 
	C1003.909729,545.038574 1003.987549,545.007019 1004.173828,544.715210 
	C1003.874634,543.951294 1003.389160,543.479065 1002.903748,543.006897 
	C1002.903748,543.006897 1002.977234,543.011047 1003.126465,542.718872 
	C1002.820496,541.947876 1002.365417,541.468933 1001.910278,540.990051 
	C1001.910278,540.990051 1001.998779,540.998535 1002.004150,540.698730 
	C1001.643005,540.277527 1001.276611,540.156189 1000.910156,540.034790 
	C1000.910156,540.034790 1000.986755,540.008911 1001.166931,539.708008 
	C1000.865845,538.942261 1000.384521,538.477478 999.903198,538.012756 
	C999.903198,538.012756 999.977539,538.011292 1000.143738,537.713623 
	C999.841492,536.944885 999.373047,536.473938 998.904602,536.002930 
	C998.904602,536.002930 998.977905,536.010986 999.108765,535.701782 
	C998.794434,534.930908 998.349243,534.469116 997.904053,534.007385 
	C997.904053,534.007385 997.977539,534.010376 998.140198,533.706848 
	C997.569397,531.672058 996.835938,529.940735 996.102539,528.209473 
	C994.067505,521.080078 992.032532,513.950684 989.956665,505.953674 
	C989.912476,494.715302 989.909058,484.344574 989.905701,473.973846 
	C990.975281,460.813324 995.997070,448.888916 1002.771790,437.928619 
	C1007.880066,429.664307 1013.767273,421.458221 1020.880554,414.943451 
	C1036.268677,400.850311 1054.008667,390.588165 1075.268921,387.832733 
	C1075.883423,387.753082 1076.448730,387.294220 1077.767334,387.151642 
	C1093.710327,385.768829 1108.689087,386.965729 1123.425049,391.101105 
	C1125.953369,391.810638 1128.526367,392.360687 1131.078735,392.984406 
	C1131.078735,392.984406 1130.990601,393.005585 1131.153320,393.286804 
	C1132.236816,393.696869 1133.157593,393.825745 1134.078369,393.954590 
	C1134.078369,393.954590 1134.009277,393.978394 1134.040405,394.301636 
	C1134.741821,394.739044 1135.412109,394.853180 1136.082397,394.967346 
	C1136.082397,394.967346 1136.007202,394.983337 1136.055176,395.291077 
	C1136.762085,395.725403 1137.420776,395.851990 1138.079590,395.978607 
	C1138.079590,395.978607 1137.998779,395.993988 1138.076172,396.251282 
	C1138.731445,396.680298 1139.309204,396.852051 1139.887085,397.023804 
	C1147.409790,401.961731 1154.932617,406.899689 1162.919922,412.287170 
	C1163.945190,412.800720 1164.505737,412.864746 1165.066284,412.928772 
	C1165.066284,412.928741 1165.004883,412.993469 1164.921997,413.303680 
	C1165.256470,413.732941 1165.673706,413.851959 1166.091064,413.971008 
	C1166.091064,413.971008 1166.018066,413.981842 1165.958374,414.285736 
	C1166.296387,414.719147 1166.693970,414.848663 1167.091675,414.978180 
	C1167.091675,414.978180 1167.017212,414.982483 1166.980469,415.276611 
	C1167.325928,415.708435 1167.708374,415.846100 1168.090698,415.983765 
	C1168.090698,415.983765 1168.011719,415.987518 1168.000366,416.270813 
	C1168.356201,416.698273 1168.723389,416.842468 1169.090576,416.986664 
	C1169.090576,416.986664 1169.017212,416.986572 1168.953613,417.267212 
	C1169.338013,418.285400 1169.786011,419.022949 1170.234009,419.760498 
z"/>
<path fill="#FAFDFC" opacity="1.000000" stroke="none" 
	d="
M643.956970,365.918335 
	C636.145630,365.918091 628.827209,365.918091 621.042114,365.918091 
	C621.042114,381.058472 621.042114,396.118408 621.042114,411.178345 
	C620.810791,411.177246 620.579468,411.176147 620.348145,411.175049 
	C620.348145,395.993591 620.348145,380.812103 620.348145,365.368896 
	C631.016418,365.368896 641.621765,365.368896 652.567566,365.368896 
	C652.567566,380.474701 652.567566,395.844849 652.567566,411.214996 
	C652.416748,411.217712 652.265869,411.220428 652.115051,411.223145 
	C652.115051,396.302155 652.115051,381.381165 652.115051,365.918579 
	C649.325256,365.918579 646.887634,365.918579 643.956970,365.918335 
z"/>
<path fill="#FAFDFC" opacity="1.000000" stroke="none" 
	d="
M1139.407227,585.046387 
	C1139.179321,584.695984 1139.230347,584.136597 1139.527100,583.930176 
	C1149.180786,577.213806 1158.858032,570.531372 1168.893188,563.912720 
	C1167.526489,566.155029 1164.162109,568.525696 1164.395630,570.462830 
	C1164.961304,575.157043 1161.364258,576.030884 1159.083740,577.153809 
	C1152.873535,580.211609 1146.256592,582.443054 1139.407227,585.046387 
z"/>
<path fill="#42C17D" opacity="1.000000" stroke="none" 
	d="
M620.295654,437.649658 
	C620.568726,439.380981 621.078491,441.112183 621.079407,442.843658 
	C621.093201,468.314850 621.036926,493.786102 621.002869,519.257324 
	C620.993347,526.386841 621.001465,533.516357 621.001465,539.857117 
	C620.804382,539.139526 619.981812,537.533508 619.978088,535.925720 
	C619.903687,503.629730 619.923462,471.333527 620.013916,438.461914 
	C620.103516,437.886414 620.295593,437.649658 620.295654,437.649658 
z"/>
<path fill="#FAFDFC" opacity="1.000000" stroke="none" 
	d="
M652.906738,448.056213 
	C652.905396,475.813782 652.905396,503.080597 652.905396,530.347473 
	C652.682312,530.347168 652.459290,530.346924 652.236206,530.346680 
	C652.236206,499.834137 652.236206,469.321625 652.236206,438.809082 
	C652.460144,438.797363 652.684082,438.785645 652.908020,438.773926 
	C652.908020,441.704468 652.908020,444.634979 652.906738,448.056213 
z"/>
<path fill="#FAFDFC" opacity="1.000000" stroke="none" 
	d="
M1035.052002,577.388428 
	C1036.519531,577.492615 1038.172241,577.754028 1039.675293,578.376404 
	C1050.047119,582.671204 1060.387695,587.041382 1070.886353,591.736267 
	C1057.376953,591.541443 1045.654419,586.169189 1035.052002,577.388428 
z"/>
<path fill="#FAFDFC" opacity="1.000000" stroke="none" 
	d="
M456.150269,512.404297 
	C480.684357,511.963776 505.388794,511.932037 530.561890,511.946838 
	C530.385925,512.329773 529.741211,512.960327 529.096924,512.959961 
	C504.838165,512.947144 480.579407,512.876221 456.150269,512.404297 
z"/>
<path fill="#FAFDFC" opacity="1.000000" stroke="none" 
	d="
M1130.931641,392.628967 
	C1128.526367,392.360687 1125.953369,391.810638 1123.425049,391.101105 
	C1108.689087,386.965729 1093.710327,385.768829 1078.159546,387.144104 
	C1078.164917,386.691559 1078.502075,386.126495 1078.853149,386.117706 
	C1095.494629,385.701172 1112.120850,385.506958 1128.161133,391.065643 
	C1129.066406,391.379395 1129.911499,391.866852 1130.931641,392.628967 
z"/>
<path fill="#FAFDFC" opacity="1.000000" stroke="none" 
	d="
M1200.633545,496.316895 
	C1200.213135,493.264252 1200.031860,489.835632 1199.507202,486.460419 
	C1198.068115,477.201721 1196.484863,467.965454 1195.010376,458.308899 
	C1196.700073,464.055847 1198.897461,470.131775 1199.820557,476.395538 
	C1200.767944,482.823151 1200.469360,489.434418 1200.633545,496.316895 
z"/>
<path fill="#FAFDFC" opacity="1.000000" stroke="none" 
	d="
M989.532715,474.159546 
	C989.909058,484.344574 989.912476,494.715302 989.889038,505.531677 
	C987.226746,497.160065 987.286438,488.268311 988.998413,479.298981 
	C989.304382,477.695862 989.118530,475.998901 989.532715,474.159546 
z"/>
<path fill="#FAFDFC" opacity="1.000000" stroke="none" 
	d="
M376.555481,575.184692 
	C378.105377,575.394470 379.268524,576.066711 380.435852,576.074036 
	C390.634644,576.138123 400.834137,576.083374 411.500153,576.065430 
	C410.980835,576.343079 409.996521,576.852051 409.008484,576.859436 
	C399.249237,576.932739 389.488708,576.977417 379.730469,576.865601 
	C378.538208,576.851990 377.357025,575.871338 376.555481,575.184692 
z"/>
<path fill="#FAFDFC" opacity="1.000000" stroke="none" 
	d="
M573.001465,576.005554 
	C579.027954,576.089172 585.054443,576.172729 591.869446,576.229553 
	C593.110657,576.151611 593.563416,576.100525 594.016113,576.049438 
	C597.044617,576.127991 600.073181,576.206482 603.803772,576.256592 
	C604.667664,576.142517 604.829529,576.056702 604.991333,575.970947 
	C605.273315,575.836304 605.555237,575.701660 605.921814,575.299988 
	C605.710632,575.604675 605.418762,576.673889 605.118530,576.676208 
	C594.347229,576.761230 583.575073,576.746521 572.497742,576.482483 
	C572.192444,576.219238 572.080017,576.191956 572.319824,576.204346 
	C572.559570,576.216736 573.001465,576.005554 573.001465,576.005554 
z"/>
<path fill="#42C17D" opacity="1.000000" stroke="none" 
	d="
M620.002441,438.000610 
	C610.079224,437.996368 600.257141,437.877991 590.205383,437.392029 
	C589.975769,437.024475 589.950134,437.051788 589.950134,437.051788 
	C599.848938,437.057220 609.747742,437.062683 619.971069,437.358887 
	C620.295593,437.649658 620.103516,437.886414 620.002441,438.000610 
z"/>
<path fill="#FAFDFC" opacity="1.000000" stroke="none" 
	d="
M589.313232,412.324097 
	C589.747681,411.884338 590.178711,411.064819 590.616943,411.060974 
	C599.206665,410.985413 607.797241,411.004791 616.401245,412.073029 
	C607.827698,412.073029 599.254211,412.073029 590.112183,412.120850 
	C589.543701,412.168671 589.313232,412.324066 589.313232,412.324097 
z"/>
<path fill="#42C17D" opacity="1.000000" stroke="none" 
	d="
M589.187378,412.743408 
	C589.313232,412.324066 589.543701,412.168671 589.645996,412.261108 
	C589.827454,420.270660 589.906616,428.187836 589.968018,436.578369 
	C589.950134,437.051788 589.975769,437.024475 589.990234,437.015625 
	C589.689636,433.185455 589.242249,429.369171 589.095398,425.541382 
	C588.937317,421.420837 589.060852,417.289429 589.187378,412.743408 
z"/>
<path fill="#FAFDFC" opacity="1.000000" stroke="none" 
	d="
M1128.385864,589.032715 
	C1131.442139,587.596924 1134.906006,586.103638 1138.723633,584.826782 
	C1135.649414,586.353882 1132.221313,587.664551 1128.385864,589.032715 
z"/>
<path fill="#FAFDFC" opacity="1.000000" stroke="none" 
	d="
M1084.848145,594.277344 
	C1090.402954,593.926453 1096.239136,593.946411 1102.536743,594.059387 
	C1097.041870,594.317688 1091.085815,594.482971 1084.848145,594.277344 
z"/>
<path fill="#FAFDFC" opacity="1.000000" stroke="none" 
	d="
M1117.391113,592.026489 
	C1120.415405,590.959290 1123.860718,589.830505 1127.692749,588.866028 
	C1124.656982,590.008545 1121.234619,590.986694 1117.391113,592.026489 
z"/>
<path fill="#FAFDFC" opacity="1.000000" stroke="none" 
	d="
M1170.203125,419.800659 
	C1169.786011,419.022949 1169.338013,418.285400 1168.959106,417.230957 
	C1170.971558,418.715424 1172.915039,420.516815 1174.963379,422.631958 
	C1174.063721,422.435699 1173.059326,421.925720 1171.640137,420.904114 
	C1170.840576,420.206848 1170.455688,420.021210 1170.070923,419.835571 
	C1170.070923,419.835571 1170.172119,419.840851 1170.203125,419.800659 
z"/>
<path fill="#FAFDFC" opacity="1.000000" stroke="none" 
	d="
M1020.057129,565.393066 
	C1021.740906,566.179260 1023.532898,567.281738 1025.143066,568.732361 
	C1023.362549,567.956787 1021.763977,566.833069 1020.057129,565.393066 
z"/>
<path fill="#FAFDFC" opacity="1.000000" stroke="none" 
	d="
M1076.103760,593.406738 
	C1078.448486,593.147095 1080.975098,593.272522 1083.844727,593.639893 
	C1081.553711,593.851807 1078.919678,593.821838 1076.103760,593.406738 
z"/>
<path fill="#FAFDFC" opacity="1.000000" stroke="none" 
	d="
M1178.382568,554.953857 
	C1178.851685,553.544739 1179.636719,552.027527 1180.746338,550.783569 
	C1180.280029,552.319702 1179.489258,553.582703 1178.382568,554.953857 
z"/>
<path fill="#FAFDFC" opacity="1.000000" stroke="none" 
	d="
M996.098022,528.577515 
	C996.835938,529.940735 997.569397,531.672058 998.126099,533.740784 
	C997.330811,532.367371 996.712158,530.656433 996.098022,528.577515 
z"/>
<path fill="#FAFDFC" opacity="1.000000" stroke="none" 
	d="
M1111.516479,592.978088 
	C1112.852417,592.578003 1114.588257,592.131714 1116.701172,591.857788 
	C1115.357544,592.330688 1113.637085,592.631287 1111.516479,592.978088 
z"/>
<path fill="#FAFDFC" opacity="1.000000" stroke="none" 
	d="
M1071.083130,592.391479 
	C1072.493042,592.148682 1074.064087,592.273499 1075.839355,592.739624 
	C1074.443726,592.973694 1072.843994,592.866455 1071.083130,592.391479 
z"/>
<path fill="#FAFDFC" opacity="1.000000" stroke="none" 
	d="
M1181.377808,550.957520 
	C1181.479736,549.947693 1181.894531,548.832031 1182.697266,547.875122 
	C1182.620239,548.973145 1182.155518,549.912476 1181.377808,550.957520 
z"/>
<path fill="#FAFDFC" opacity="1.000000" stroke="none" 
	d="
M1005.951050,548.363281 
	C1006.782227,548.851379 1007.656006,549.667908 1008.224304,550.773560 
	C1007.277161,550.272461 1006.635437,549.482117 1005.951050,548.363281 
z"/>
<path fill="#FAFDFC" opacity="1.000000" stroke="none" 
	d="
M1003.950684,545.368652 
	C1004.717834,545.823059 1005.525879,546.607605 1006.138794,547.735352 
	C1005.292908,547.285339 1004.642273,546.492065 1003.950684,545.368652 
z"/>
<path fill="#FAFDFC" opacity="1.000000" stroke="none" 
	d="
M1032.038330,575.371826 
	C1033.079224,575.483765 1034.225708,575.908813 1035.164551,576.707153 
	C1034.019165,576.615295 1033.081665,576.150085 1032.038330,575.371826 
z"/>
<path fill="#FAFDFC" opacity="1.000000" stroke="none" 
	d="
M1012.952942,557.383850 
	C1013.613037,557.481506 1014.315918,557.936218 1015.004700,558.739258 
	C1014.325623,558.638733 1013.660645,558.189819 1012.952942,557.383850 
z"/>
<path fill="#FAFDFC" opacity="1.000000" stroke="none" 
	d="
M1133.942627,393.619080 
	C1133.157593,393.825745 1132.236816,393.696869 1131.141357,393.243103 
	C1131.913452,393.040009 1132.860229,393.161804 1133.942627,393.619080 
z"/>
<path fill="#FAFDFC" opacity="1.000000" stroke="none" 
	d="
M1139.871826,396.694519 
	C1139.309204,396.852051 1138.731445,396.680298 1138.069092,396.210724 
	C1138.608643,396.063690 1139.232666,396.214478 1139.871826,396.694519 
z"/>
<path fill="#FAFDFC" opacity="1.000000" stroke="none" 
	d="
M1016.860107,561.220337 
	C1017.375549,561.432312 1018.013550,561.960266 1018.290161,562.773193 
	C1017.613464,562.550842 1017.298096,562.043518 1016.860107,561.220337 
z"/>
<path fill="#FAFDFC" opacity="1.000000" stroke="none" 
	d="
M1178.039795,426.695129 
	C1177.548218,426.510468 1177.009521,426.004028 1176.766602,425.216736 
	C1177.372559,425.415100 1177.682495,425.894226 1178.039795,426.695129 
z"/>
<path fill="#FAFDFC" opacity="1.000000" stroke="none" 
	d="
M1180.902100,430.875793 
	C1180.392456,430.632843 1179.943359,430.043671 1179.778198,429.196045 
	C1180.362305,429.468262 1180.662598,429.998932 1180.902100,430.875793 
z"/>
<path fill="#FAFDFC" opacity="1.000000" stroke="none" 
	d="
M1029.047607,573.375610 
	C1029.616943,573.123779 1030.290527,573.176208 1030.984619,573.660034 
	C1030.387451,573.954224 1029.769653,573.817017 1029.047607,573.375610 
z"/>
<path fill="#FAFDFC" opacity="1.000000" stroke="none" 
	d="
M1164.966553,412.633972 
	C1164.505737,412.864746 1163.945190,412.800720 1163.234131,412.435608 
	C1163.678101,412.202698 1164.272339,412.270935 1164.966553,412.633972 
z"/>
<path fill="#FAFDFC" opacity="1.000000" stroke="none" 
	d="
M1009.949463,553.318115 
	C1010.461426,553.510193 1011.018250,554.019348 1011.243896,554.792542 
	C1010.606567,554.582825 1010.300354,554.108948 1009.949463,553.318115 
z"/>
<path fill="#FAFDFC" opacity="1.000000" stroke="none" 
	d="
M1135.977051,394.658081 
	C1135.412109,394.853180 1134.741821,394.739044 1134.036865,394.265259 
	C1134.625244,394.053406 1135.248413,394.201141 1135.977051,394.658081 
z"/>
<path fill="#FAFDFC" opacity="1.000000" stroke="none" 
	d="
M997.955322,534.328857 
	C998.349243,534.469116 998.794434,534.930908 999.098511,535.737244 
	C998.640442,535.604675 998.323547,535.127502 997.955322,534.328857 
z"/>
<path fill="#FAFDFC" opacity="1.000000" stroke="none" 
	d="
M999.949219,538.332397 
	C1000.384521,538.477478 1000.865845,538.942261 1001.144775,539.741821 
	C1000.626770,539.601685 1000.311035,539.126831 999.949219,538.332397 
z"/>
<path fill="#FAFDFC" opacity="1.000000" stroke="none" 
	d="
M1001.961121,541.312622 
	C1002.365417,541.468933 1002.820496,541.947876 1003.113098,542.753174 
	C1002.637695,542.598145 1002.324829,542.116638 1001.961121,541.312622 
z"/>
<path fill="#FAFDFC" opacity="1.000000" stroke="none" 
	d="
M1002.952026,543.326233 
	C1003.389160,543.479065 1003.874634,543.951294 1004.149536,544.749512 
	C1003.626099,544.598938 1003.313171,544.122253 1002.952026,543.326233 
z"/>
<path fill="#FAFDFC" opacity="1.000000" stroke="none" 
	d="
M1184.345459,545.974487 
	C1184.150513,545.433289 1184.264893,544.785706 1184.736694,544.066284 
	C1184.947754,544.619019 1184.801270,545.243530 1184.345459,545.974487 
z"/>
<path fill="#FAFDFC" opacity="1.000000" stroke="none" 
	d="
M998.955688,536.323364 
	C999.373047,536.473938 999.841492,536.944885 1000.127808,537.747192 
	C999.632751,537.600342 999.319763,537.122070 998.955688,536.323364 
z"/>
<path fill="#FAFDFC" opacity="1.000000" stroke="none" 
	d="
M1183.364990,547.961853 
	C1183.131470,547.390747 1183.203613,546.714050 1183.684326,546.017212 
	C1183.952271,546.616821 1183.811523,547.236511 1183.364990,547.961853 
z"/>
<path fill="#FAFDFC" opacity="1.000000" stroke="none" 
	d="
M1137.977173,395.666382 
	C1137.420776,395.851990 1136.762085,395.725403 1136.049805,395.253052 
	C1136.622437,395.056274 1137.248657,395.205231 1137.977173,395.666382 
z"/>
<path fill="#FAFDFC" opacity="1.000000" stroke="none" 
	d="
M1030.979248,574.282166 
	C1031.380371,574.129639 1031.848389,574.243896 1032.139160,574.720337 
	C1031.656738,574.904663 1031.351318,574.726807 1030.979248,574.282166 
z"/>
<path fill="#FAFDFC" opacity="1.000000" stroke="none" 
	d="
M1027.983765,572.297974 
	C1028.403564,572.121216 1028.891235,572.206848 1029.168213,572.687134 
	C1028.655518,572.907959 1028.353638,572.734070 1027.983765,572.297974 
z"/>
<path fill="#FAFDFC" opacity="1.000000" stroke="none" 
	d="
M1026.982544,571.294922 
	C1027.383057,571.125244 1027.851929,571.219543 1028.141846,571.698730 
	C1027.658936,571.908691 1027.354980,571.733826 1026.982544,571.294922 
z"/>
<path fill="#FAFDFC" opacity="1.000000" stroke="none" 
	d="
M1025.983032,570.295410 
	C1026.367676,570.126160 1026.821167,570.221802 1027.121216,570.701294 
	C1026.662476,570.910217 1026.357178,570.735229 1025.983032,570.295410 
z"/>
<path fill="#FAFDFC" opacity="1.000000" stroke="none" 
	d="
M1024.981689,569.291931 
	C1025.362427,569.128967 1025.811768,569.231750 1026.114990,569.709961 
	C1025.662720,569.909546 1025.356689,569.733582 1024.981689,569.291931 
z"/>
<path fill="#FAFDFC" opacity="1.000000" stroke="none" 
	d="
M1176.299072,557.016113 
	C1176.124146,556.621887 1176.212402,556.158936 1176.692749,555.866028 
	C1176.910767,556.339783 1176.736572,556.643555 1176.299072,557.016113 
z"/>
<path fill="#FAFDFC" opacity="1.000000" stroke="none" 
	d="
M1166.020752,413.706665 
	C1165.673706,413.851959 1165.256470,413.732941 1164.938232,413.262085 
	C1165.341553,413.087646 1165.645996,413.265015 1166.020752,413.706665 
z"/>
<path fill="#FAFDFC" opacity="1.000000" stroke="none" 
	d="
M1007.987061,551.313354 
	C1008.340576,551.140076 1008.766052,551.225708 1009.076294,551.700317 
	C1008.660339,551.916931 1008.359619,551.744629 1007.987061,551.313354 
z"/>
<path fill="#FAFDFC" opacity="1.000000" stroke="none" 
	d="
M1180.015381,428.702881 
	C1179.674194,428.868896 1179.263062,428.767761 1178.934326,428.289307 
	C1179.326416,428.086548 1179.635864,428.261169 1180.015381,428.702881 
z"/>
<path fill="#FAFDFC" opacity="1.000000" stroke="none" 
	d="
M1179.015747,427.714172 
	C1178.710449,427.857727 1178.332397,427.731171 1177.978271,427.259644 
	C1178.315674,427.091125 1178.629272,427.267609 1179.015747,427.714172 
z"/>
<path fill="#FAFDFC" opacity="1.000000" stroke="none" 
	d="
M1177.015381,424.701050 
	C1176.640137,424.874695 1176.195679,424.783661 1175.889648,424.303345 
	C1176.334106,424.088165 1176.640137,424.262238 1177.015381,424.701050 
z"/>
<path fill="#FAFDFC" opacity="1.000000" stroke="none" 
	d="
M1176.017090,423.705811 
	C1175.648804,423.871735 1175.211548,423.771362 1174.899902,423.292389 
	C1175.332886,423.089020 1175.640503,423.264252 1176.017090,423.705811 
z"/>
<path fill="#FAFDFC" opacity="1.000000" stroke="none" 
	d="
M1169.017334,416.718018 
	C1168.723389,416.842468 1168.356201,416.698273 1168.001221,416.231262 
	C1168.323608,416.088776 1168.633789,416.269073 1169.017334,416.718018 
z"/>
<path fill="#FAFDFC" opacity="1.000000" stroke="none" 
	d="
M1168.020996,415.714508 
	C1167.708374,415.846100 1167.325928,415.708435 1166.982422,415.239441 
	C1167.331177,415.087158 1167.641235,415.266205 1168.020996,415.714508 
z"/>
<path fill="#FAFDFC" opacity="1.000000" stroke="none" 
	d="
M1167.021240,414.711151 
	C1166.693970,414.848663 1166.296387,414.719147 1165.963623,414.249146 
	C1166.335938,414.087158 1166.643433,414.265625 1167.021240,414.711151 
z"/>
<path fill="#FAFDFC" opacity="1.000000" stroke="none" 
	d="
M1000.986450,540.299438 
	C1001.276611,540.156189 1001.643005,540.277527 1001.999878,540.742920 
	C1001.681091,540.912659 1001.371887,540.738342 1000.986450,540.299438 
z"/>
<path fill="#FAFDFC" opacity="1.000000" stroke="none" 
	d="
M1185.088135,543.963013 
	C1185.192383,544.097900 1185.413452,544.026917 1185.678467,543.628296 
	C1185.659546,543.685913 1185.486938,543.838074 1185.088135,543.963013 
z"/>
<path fill="#FAFDFC" opacity="1.000000" stroke="none" 
	d="
M1018.986328,564.303345 
	C1019.409424,564.116760 1019.901184,564.190613 1020.174805,564.673279 
	C1019.656067,564.909302 1019.355530,564.736572 1018.986328,564.303345 
z"/>
<path fill="#FAFDFC" opacity="1.000000" stroke="none" 
	d="
M1008.985962,552.302246 
	C1009.300049,552.150940 1009.688904,552.262085 1010.027405,552.731995 
	C1009.671631,552.915405 1009.366211,552.740051 1008.985962,552.302246 
z"/>
<path fill="#FAFDFC" opacity="1.000000" stroke="none" 
	d="
M1010.988037,555.315674 
	C1011.335327,555.139709 1011.754639,555.222717 1012.068726,555.697876 
	C1011.662415,555.918213 1011.361206,555.746460 1010.988037,555.315674 
z"/>
<path fill="#FAFDFC" opacity="1.000000" stroke="none" 
	d="
M1177.298950,556.016235 
	C1177.123413,555.613159 1177.210815,555.141479 1177.691040,554.854248 
	C1177.909790,555.341736 1177.735718,555.644714 1177.298950,556.016235 
z"/>
<path fill="#FAFDFC" opacity="1.000000" stroke="none" 
	d="
M1011.983276,556.302246 
	C1012.297791,556.151550 1012.685059,556.265381 1013.025269,556.734985 
	C1012.670837,556.916138 1012.363403,556.741455 1011.983276,556.302246 
z"/>
<path fill="#FAFDFC" opacity="1.000000" stroke="none" 
	d="
M1175.296143,558.017090 
	C1175.125488,557.622131 1175.218750,557.158630 1175.698242,556.865845 
	C1175.909668,557.340515 1175.734863,557.644592 1175.296143,558.017090 
z"/>
<path fill="#FAFDFC" opacity="1.000000" stroke="none" 
	d="
M1174.293335,559.017944 
	C1174.128052,558.634033 1174.227905,558.181396 1174.706665,557.880737 
	C1174.909790,558.338257 1174.734253,558.643738 1174.293335,559.017944 
z"/>
<path fill="#FAFDFC" opacity="1.000000" stroke="none" 
	d="
M1173.287354,560.019836 
	C1173.132568,559.645935 1173.245117,559.203613 1173.721680,558.895386 
	C1173.908813,559.336792 1173.731689,559.644104 1173.287354,560.019836 
z"/>
<path fill="#FAFDFC" opacity="1.000000" stroke="none" 
	d="
M1172.278564,561.017578 
	C1172.139160,560.678894 1172.268311,560.268860 1172.743164,559.938843 
	C1172.908203,560.327881 1172.727661,560.637024 1172.278564,561.017578 
z"/>
<path fill="#FAFDFC" opacity="1.000000" stroke="none" 
	d="
M1171.273438,562.079346 
	C1171.140503,561.789185 1171.268433,561.380493 1171.743164,560.987915 
	C1171.904907,561.322876 1171.719604,561.641846 1171.273438,562.079346 
z"/>
<path fill="#FAFDFC" opacity="1.000000" stroke="none" 
	d="
M1017.986450,563.303223 
	C1018.409424,563.116699 1018.901184,563.190552 1019.174805,563.673218 
	C1018.656250,563.909180 1018.355713,563.736389 1017.986450,563.303223 
z"/>
<path fill="#000000" opacity="1.000000" stroke="none" 
	d="
M462.017395,483.972260 
	C457.566864,483.972656 453.612915,483.972656 449.038574,483.972656 
	C463.452789,448.200928 477.598511,413.095520 491.704681,378.088318 
	C505.689972,412.792877 519.859131,447.953674 534.373779,483.971863 
	C509.728790,483.971863 486.121399,483.971863 462.017395,483.972260 
z"/>
<path fill="#000000" opacity="1.000000" stroke="none" 
	d="
M593.876221,575.812500 
	C593.563416,576.100525 593.110657,576.151611 592.324890,576.114380 
	C592.573303,575.875854 593.154785,575.725769 593.876221,575.812500 
z"/>
<path fill="#000000" opacity="1.000000" stroke="none" 
	d="
M604.873413,575.822876 
	C604.829529,576.056702 604.667664,576.142517 604.244751,576.142700 
	C604.240967,575.929749 604.498291,575.802307 604.873413,575.822876 
z"/>
<path fill="#000000" opacity="1.000000" stroke="none" 
	d="
M572.894104,575.844910 
	C573.001465,576.005554 572.559570,576.216736 572.317749,576.262085 
	C572.312866,576.099731 572.549805,575.891968 572.894104,575.844910 
z"/>
<path fill="#FAFDFC" opacity="1.000000" stroke="none" 
	d="
M1021.619141,555.131348 
	C1017.824768,549.939880 1014.220032,544.971924 1010.763123,539.903137 
	C1004.391052,530.560181 1000.507690,520.166016 998.191772,509.163788 
	C993.152832,485.225281 996.466064,462.365204 1009.671936,441.859070 
	C1031.057373,408.651794 1061.382568,391.149567 1101.641602,394.181824 
	C1127.020142,396.093262 1148.449097,407.155487 1166.675049,425.324188 
	C1178.187012,438.544586 1187.122559,452.855774 1190.299805,469.978058 
	C1191.858154,478.375183 1192.194702,486.998932 1193.084229,495.520142 
	C1192.528198,495.610779 1191.972168,495.701385 1191.416016,495.792023 
	C1190.276245,492.263611 1189.271606,488.684265 1187.965454,485.218536 
	C1185.943604,479.853699 1182.732788,476.903687 1176.224976,476.392334 
	C1170.431763,475.937103 1164.856445,472.708527 1159.016968,470.644592 
	C1157.964355,472.941254 1161.369263,477.877228 1165.218750,478.076324 
	C1167.021606,478.169556 1170.261841,479.273102 1170.274292,479.964783 
	C1170.316895,482.354340 1169.994141,485.889008 1168.426025,486.959747 
	C1163.291260,490.465729 1157.546509,493.078217 1152.184326,495.954742 
	C1147.044434,487.336975 1142.298096,479.379120 1137.183838,470.776917 
	C1137.549805,465.545441 1138.283691,460.958282 1139.093506,455.897278 
	C1136.274658,455.897278 1133.981079,455.805664 1131.697021,455.915466 
	C1126.197876,456.179749 1125.344482,455.326080 1125.463867,449.446808 
	C1131.719360,449.741119 1137.970825,450.035248 1144.562012,450.345337 
	C1142.453247,446.507111 1140.775269,443.453064 1138.949341,440.129486 
	C1136.113770,440.792114 1131.196411,440.518768 1129.975342,442.511017 
	C1127.077148,447.239716 1122.100342,447.863068 1118.173950,450.860565 
	C1117.613892,450.236511 1117.183716,449.459595 1116.524658,449.071960 
	C1112.721558,446.834991 1108.848022,442.921906 1105.029785,442.957397 
	C1100.158203,443.002777 1094.330322,444.426483 1091.125244,449.433685 
	C1087.835205,454.574005 1083.254517,454.665985 1078.144409,453.458130 
	C1077.931519,446.512085 1078.417603,445.790649 1084.806763,446.013367 
	C1088.991821,446.159241 1089.743530,444.295563 1088.785645,440.838165 
	C1088.497070,439.796722 1088.078369,438.791321 1087.714844,437.756744 
	C1091.471191,435.554047 1094.915527,433.577667 1098.315796,431.528015 
	C1101.659546,429.512329 1104.662476,427.190521 1109.178223,427.875610 
	C1111.159790,428.176208 1114.026489,426.608093 1115.567383,425.002045 
	C1118.556274,421.886688 1120.891357,418.144318 1123.497437,414.661774 
	C1119.465088,414.844208 1115.671753,415.463470 1112.793213,417.425262 
	C1111.432617,418.352509 1111.824341,421.850922 1111.421997,424.184418 
	C1110.945923,424.589478 1110.469849,424.994537 1109.993774,425.399597 
	C1109.344727,423.522858 1108.695557,421.646118 1108.046509,419.769379 
	C1107.551147,420.136963 1107.055786,420.504578 1106.560425,420.872192 
	C1106.174072,421.809174 1105.787842,422.746155 1105.398926,423.689484 
	C1100.390869,420.982910 1100.416504,420.834900 1104.835693,417.841278 
	C1106.032471,417.030518 1107.013428,415.813141 1107.887451,414.630188 
	C1110.844727,410.627777 1114.146851,408.720520 1119.453003,410.611664 
	C1122.405151,411.663788 1126.217041,412.301025 1129.212036,408.767731 
	C1128.320679,408.134979 1127.746582,407.402283 1127.077026,407.300903 
	C1116.934937,405.764893 1107.686157,406.664886 1100.987183,415.962402 
	C1098.796265,419.003265 1096.563354,421.342468 1097.625610,425.703766 
	C1097.980469,427.160461 1094.930420,429.446533 1093.436768,431.353516 
	C1092.152710,430.125275 1090.671021,429.037964 1089.658569,427.616272 
	C1089.046387,426.756561 1089.468750,425.165863 1088.863770,424.293762 
	C1088.275635,423.445984 1086.361816,422.386627 1086.071411,422.635376 
	C1082.443726,425.744354 1077.385864,427.782623 1076.873047,432.916168 
	C1080.558350,436.459412 1083.756592,439.534332 1086.984253,442.637604 
	C1083.483032,445.284576 1078.053223,440.656219 1076.289429,446.479309 
	C1075.137451,450.282898 1073.152954,454.214508 1076.561279,457.465485 
	C1074.279175,461.270935 1072.912842,465.991669 1069.772583,468.338562 
	C1059.375244,476.109039 1061.317627,486.942535 1062.539185,496.911438 
	C1063.604614,505.604797 1073.700928,511.759186 1082.880859,511.939758 
	C1086.615479,512.013245 1090.317993,512.868652 1090.155640,518.336731 
	C1090.334839,519.671082 1090.420288,520.717957 1090.871826,521.571289 
	C1094.234131,527.926270 1096.287231,534.292847 1093.189575,541.522461 
	C1092.459961,543.225220 1093.085205,545.835754 1093.796265,547.767700 
	C1096.017334,553.802795 1098.566528,559.717590 1101.009399,565.670410 
	C1103.411865,571.524719 1106.348999,573.275330 1112.575073,572.612183 
	C1120.923218,571.722900 1131.969482,561.971741 1134.293457,553.915955 
	C1134.896484,551.826050 1136.413330,549.535583 1138.185913,548.331726 
	C1144.232544,544.224854 1146.538452,538.921448 1145.604126,531.668823 
	C1145.300537,529.312683 1146.153931,526.225586 1147.611206,524.355896 
	C1150.020020,521.265503 1153.455200,518.998352 1156.257080,516.184204 
	C1158.680054,513.750732 1161.408691,511.334808 1162.911743,508.360138 
	C1164.192871,505.824799 1163.922119,502.505341 1164.337891,499.532776 
	C1161.668579,499.783936 1158.999268,500.035065 1156.061157,500.036316 
	C1155.603638,499.630432 1155.415039,499.474487 1155.226562,499.318542 
	C1158.172363,497.475830 1160.951660,495.253418 1164.100098,493.872406 
	C1169.974854,491.295502 1173.835205,487.607391 1173.138672,480.786835 
	C1180.245361,479.379486 1183.736328,481.392700 1185.722046,487.942078 
	C1186.251465,489.688049 1186.219116,491.637604 1186.924561,493.288513 
	C1187.823486,495.391876 1189.210205,497.286804 1191.126343,499.011688 
	C1190.708252,512.842468 1186.644165,526.053955 1179.270020,538.231689 
	C1151.319824,584.388916 1091.471436,600.156128 1044.856079,573.148010 
	C1036.541748,568.330811 1029.503174,561.311768 1021.619141,555.131348 
M1014.070679,446.441193 
	C1008.511963,456.252380 1004.085388,466.157562 1011.389954,477.104004 
	C1011.747437,477.639648 1011.850525,478.345398 1012.070129,478.972595 
	C1014.730286,486.568970 1022.630615,487.983734 1027.993408,492.389587 
	C1028.336304,492.671356 1029.467529,492.511444 1029.847290,492.151276 
	C1034.022705,488.190674 1038.963257,490.559998 1044.390259,491.035248 
	C1043.358276,492.302246 1042.326172,493.569275 1041.497314,494.586761 
	C1045.083374,494.087372 1049.183350,493.516388 1053.283325,492.945404 
	C1052.821533,491.379608 1051.564819,490.495361 1050.168579,490.023346 
	C1049.031006,489.638763 1047.352051,490.208588 1046.556641,489.562744 
	C1041.332642,485.320740 1036.054443,484.707336 1030.374634,488.568878 
	C1029.777222,488.975098 1028.557617,489.294159 1028.117798,488.975677 
	C1023.998047,485.991486 1018.834412,483.604828 1016.229980,479.583405 
	C1012.892578,474.430298 1009.843018,468.577301 1011.723206,461.440948 
	C1013.851990,453.361450 1016.462585,445.307770 1023.835205,441.171051 
	C1032.049683,436.561951 1040.022461,431.470490 1048.989868,427.947113 
	C1056.052002,425.172302 1062.362549,421.442902 1070.392456,422.446381 
	C1072.885254,422.757874 1075.621216,421.123505 1078.610352,420.276703 
	C1076.096436,417.586273 1074.547729,415.928772 1072.681641,413.931732 
	C1075.282715,412.333069 1077.307617,411.212952 1079.194092,409.894958 
	C1081.183594,408.505096 1083.041138,406.926422 1084.931885,405.449280 
	C1080.952026,399.924500 1069.681030,399.847046 1064.971191,405.234833 
	C1069.820435,405.018066 1074.329956,404.816498 1078.839478,404.614929 
	C1079.017944,405.250214 1079.196411,405.885498 1079.375000,406.520782 
	C1070.213501,409.164825 1066.942383,420.836487 1055.693237,420.621338 
	C1053.619141,420.581665 1051.581299,423.220154 1049.373047,424.311401 
	C1047.249390,425.360840 1044.918945,425.987366 1042.693237,426.836060 
	C1040.727783,427.585571 1038.298096,427.896393 1036.920654,429.257996 
	C1033.354370,432.782806 1029.384277,435.099121 1023.892944,436.586365 
	C1025.259399,433.513947 1026.180054,431.444000 1027.100708,429.374023 
	C1026.451050,429.066772 1025.801392,428.759521 1025.151733,428.452271 
	C1023.377197,431.981720 1021.602722,435.511139 1019.832764,439.031494 
	C1019.197449,437.877930 1018.589355,436.773926 1018.191833,436.052155 
	C1016.950867,439.390015 1015.749695,442.620972 1014.070679,446.441193 
M1150.777832,556.423889 
	C1154.789307,550.904907 1158.635620,545.323547 1158.227539,538.052856 
	C1155.706299,539.159180 1153.948364,540.793335 1151.925781,541.974182 
	C1149.397705,543.450073 1145.821411,552.659790 1147.276733,555.182983 
	C1147.728027,555.965576 1149.118042,556.206665 1150.777832,556.423889 
M1152.712891,445.654022 
	C1153.526001,447.599823 1154.265869,449.580780 1155.178467,451.478729 
	C1155.764648,452.697754 1156.545288,453.844177 1157.409424,454.880829 
	C1157.512085,455.003845 1159.231567,454.282227 1159.274658,453.858032 
	C1159.409302,452.531555 1159.355835,451.066071 1158.901611,449.828247 
	C1158.236938,448.016418 1157.101318,446.383240 1156.281738,444.620239 
	C1155.711792,443.394043 1155.335938,442.077667 1154.873291,440.801636 
	C1153.990479,442.208435 1153.107666,443.615234 1152.712891,445.654022 
M1046.247437,415.146332 
	C1045.131958,414.546326 1043.876709,413.286285 1042.930298,413.486511 
	C1041.084961,413.876984 1039.412598,415.084839 1037.668579,415.954193 
	C1038.259521,416.635773 1038.850464,417.317383 1039.441406,417.998962 
	C1040.615356,418.395264 1041.789185,418.791534 1042.998413,419.199738 
	C1042.511230,420.625458 1042.100952,421.826202 1041.690674,423.026917 
	C1042.295532,423.256134 1042.900269,423.485321 1043.505005,423.714508 
	C1044.449829,421.083862 1045.394531,418.453217 1046.247437,415.146332 
z"/>
<path fill="#FAFDFC" opacity="1.000000" stroke="none" 
	d="
M1134.332764,471.052307 
	C1137.283325,477.047668 1140.098511,483.115173 1143.238281,489.009918 
	C1144.968994,492.259583 1146.979736,495.453217 1149.403442,498.195679 
	C1150.391724,499.313934 1152.808228,499.169891 1154.900757,499.459351 
	C1155.415039,499.474487 1155.603638,499.630432 1156.224854,500.337646 
	C1158.159058,501.276031 1159.660522,501.663177 1161.404175,502.112671 
	C1161.335571,502.705963 1161.317139,503.332489 1161.185425,503.934265 
	C1159.848022,510.047272 1154.660034,512.841919 1150.440674,516.523499 
	C1145.806885,520.566895 1140.711060,524.703430 1142.020020,531.799133 
	C1143.382935,539.188293 1140.748047,543.973633 1134.153564,547.123291 
	C1132.794678,547.772339 1131.014526,549.204102 1130.864746,550.447998 
	C1129.945312,558.083679 1124.348877,562.471375 1119.297607,566.916138 
	C1114.661621,570.995789 1107.082764,569.892273 1104.920776,565.279114 
	C1101.800049,558.620117 1099.143677,551.732849 1096.562134,544.840698 
	C1096.050171,543.473999 1096.820923,541.648743 1096.911987,540.029907 
	C1097.118530,536.355713 1097.907104,532.563904 1097.272217,529.033386 
	C1096.587769,525.227051 1094.549927,521.664124 1093.286499,517.706787 
	C1093.590088,511.968414 1088.539429,507.492737 1082.598755,508.536530 
	C1078.115723,509.324219 1075.085327,508.002380 1071.957764,504.934845 
	C1067.390137,500.454895 1065.335693,495.810516 1065.233643,489.002014 
	C1065.144531,483.057587 1066.012329,478.325989 1069.426392,473.766876 
	C1071.405762,471.123535 1073.188477,468.330566 1075.215454,465.726166 
	C1076.619019,463.922729 1078.074707,461.177887 1079.876831,460.842865 
	C1086.434937,459.623779 1093.148315,459.241547 1099.568604,458.568420 
	C1101.633179,463.810364 1109.829346,469.031097 1113.285156,467.222992 
	C1116.598877,465.489197 1119.068237,465.858459 1122.069824,467.477020 
	C1123.603271,468.303955 1125.647461,468.123627 1127.391968,468.634064 
	C1129.740356,469.321136 1132.022339,470.235504 1134.332764,471.052307 
z"/>
<path fill="#42C17D" opacity="1.000000" stroke="none" 
	d="
M1134.669800,471.050140 
	C1132.022339,470.235504 1129.740356,469.321136 1127.391968,468.634064 
	C1125.647461,468.123627 1123.603271,468.303955 1122.069824,467.477020 
	C1119.068237,465.858459 1116.598877,465.489197 1113.285156,467.222992 
	C1109.829346,469.031097 1101.633179,463.810364 1099.568604,458.568420 
	C1093.148315,459.241547 1086.434937,459.623779 1079.876831,460.842865 
	C1078.074707,461.177887 1076.619019,463.922729 1075.215454,465.726166 
	C1073.188477,468.330566 1071.405762,471.123535 1069.426392,473.766876 
	C1066.012329,478.325989 1065.144531,483.057587 1065.233643,489.002014 
	C1065.335693,495.810516 1067.390137,500.454895 1071.957764,504.934845 
	C1075.085327,508.002380 1078.115723,509.324219 1082.598755,508.536530 
	C1088.539429,507.492737 1093.590088,511.968414 1092.927490,517.686340 
	C1091.666992,517.955872 1090.949219,517.957764 1090.231445,517.959656 
	C1090.317993,512.868652 1086.615479,512.013245 1082.880859,511.939758 
	C1073.700928,511.759186 1063.604614,505.604797 1062.539185,496.911438 
	C1061.317627,486.942535 1059.375244,476.109039 1069.772583,468.338562 
	C1072.912842,465.991669 1074.279175,461.270935 1076.561279,457.465485 
	C1073.152954,454.214508 1075.137451,450.282898 1076.289429,446.479309 
	C1078.053223,440.656219 1083.483032,445.284576 1086.984253,442.637604 
	C1083.756592,439.534332 1080.558350,436.459412 1076.873047,432.916168 
	C1077.385864,427.782623 1082.443726,425.744354 1086.071411,422.635376 
	C1086.361816,422.386627 1088.275635,423.445984 1088.863770,424.293762 
	C1089.468750,425.165863 1089.046387,426.756561 1089.658569,427.616272 
	C1090.671021,429.037964 1092.152710,430.125275 1093.436768,431.353516 
	C1094.930420,429.446533 1097.980469,427.160461 1097.625610,425.703766 
	C1096.563354,421.342468 1098.796265,419.003265 1100.987183,415.962402 
	C1107.686157,406.664886 1116.934937,405.764893 1127.077026,407.300903 
	C1127.746582,407.402283 1128.320679,408.134979 1129.212036,408.767731 
	C1126.217041,412.301025 1122.405151,411.663788 1119.453003,410.611664 
	C1114.146851,408.720520 1110.844727,410.627777 1107.887451,414.630188 
	C1107.013428,415.813141 1106.032471,417.030518 1104.835693,417.841278 
	C1100.416504,420.834900 1100.390869,420.982910 1105.398926,423.689484 
	C1105.787842,422.746155 1106.174072,421.809174 1106.560425,420.872192 
	C1107.055786,420.504578 1107.551147,420.136963 1108.046509,419.769379 
	C1108.695557,421.646118 1109.344727,423.522858 1109.993774,425.399597 
	C1110.469849,424.994537 1110.945923,424.589478 1111.421997,424.184418 
	C1111.824341,421.850922 1111.432617,418.352509 1112.793213,417.425262 
	C1115.671753,415.463470 1119.465088,414.844208 1123.497437,414.661774 
	C1120.891357,418.144318 1118.556274,421.886688 1115.567383,425.002045 
	C1114.026489,426.608093 1111.159790,428.176208 1109.178223,427.875610 
	C1104.662476,427.190521 1101.659546,429.512329 1098.315796,431.528015 
	C1094.915527,433.577667 1091.471191,435.554047 1087.714844,437.756744 
	C1088.078369,438.791321 1088.497070,439.796722 1088.785645,440.838165 
	C1089.743530,444.295563 1088.991821,446.159241 1084.806763,446.013367 
	C1078.417603,445.790649 1077.931519,446.512085 1078.144409,453.458130 
	C1083.254517,454.665985 1087.835205,454.574005 1091.125244,449.433685 
	C1094.330322,444.426483 1100.158203,443.002777 1105.029785,442.957397 
	C1108.848022,442.921906 1112.721558,446.834991 1116.524658,449.071960 
	C1117.183716,449.459595 1117.613892,450.236511 1118.173950,450.860565 
	C1122.100342,447.863068 1127.077148,447.239716 1129.975342,442.511017 
	C1131.196411,440.518768 1136.113770,440.792114 1138.949341,440.129486 
	C1140.775269,443.453064 1142.453247,446.507111 1144.562012,450.345337 
	C1137.970825,450.035248 1131.719360,449.741119 1125.463867,449.446808 
	C1125.344482,455.326080 1126.197876,456.179749 1131.697021,455.915466 
	C1133.981079,455.805664 1136.274658,455.897278 1139.093506,455.897278 
	C1138.283691,460.958282 1137.549805,465.545441 1136.923828,470.564636 
	C1136.356934,471.013794 1135.681885,471.030914 1134.669800,471.050140 
M1105.865845,450.519806 
	C1100.425293,446.209290 1095.617676,447.492249 1090.266113,455.249390 
	C1092.811035,455.249390 1094.894165,455.179657 1096.970947,455.265594 
	C1100.183594,455.398468 1103.115356,454.911469 1104.561035,459.617645 
	C1105.230469,461.796783 1111.081055,464.595276 1113.048828,463.708679 
	C1117.272827,461.805542 1120.279785,463.739532 1123.823975,464.403320 
	C1127.309204,465.056000 1130.867188,465.320282 1134.406982,465.756653 
	C1134.795288,463.157440 1135.096680,461.139618 1135.410156,459.041229 
	C1132.240967,459.041229 1128.751831,460.004028 1126.486938,458.752045 
	C1124.492676,457.649597 1123.867065,454.071136 1122.455322,451.219177 
	C1122.311401,452.130005 1122.273682,452.730072 1122.115723,453.296570 
	C1121.707764,454.760651 1121.246704,456.209930 1120.806763,457.665131 
	C1119.607178,456.732819 1118.277832,455.924622 1117.239380,454.838257 
	C1115.765015,453.296082 1114.505127,451.549133 1114.061768,451.004761 
	C1111.826050,453.366730 1110.027832,455.266479 1108.229614,457.166229 
	C1107.771240,456.725494 1107.312866,456.284790 1106.854370,455.844055 
	C1107.707031,455.028412 1108.559692,454.212769 1109.476196,453.336029 
	C1108.426880,452.573456 1107.376099,451.809845 1105.865845,450.519806 
M1139.535156,446.189117 
	C1133.557495,442.873901 1131.353394,443.111053 1131.025757,447.191162 
	C1132.614502,446.848145 1134.169678,446.332733 1135.752686,446.225098 
	C1137.125366,446.131775 1138.529419,446.500641 1139.535156,446.189117 
z"/>
<path fill="#42C17D" opacity="1.000000" stroke="none" 
	d="
M1170.198730,420.151489 
	C1170.455688,420.021210 1170.840576,420.206848 1171.389526,420.684265 
	C1171.144653,420.806519 1170.735474,420.636963 1170.198730,420.151489 
z"/>
<path fill="#42C17D" opacity="1.000000" stroke="none" 
	d="
M1014.309570,446.146545 
	C1015.749695,442.620972 1016.950867,439.390015 1018.191833,436.052155 
	C1018.589355,436.773926 1019.197449,437.877930 1019.832764,439.031494 
	C1021.602722,435.511139 1023.377197,431.981720 1025.151733,428.452271 
	C1025.801392,428.759521 1026.451050,429.066772 1027.100708,429.374023 
	C1026.180054,431.444000 1025.259399,433.513947 1023.892944,436.586365 
	C1029.384277,435.099121 1033.354370,432.782806 1036.920654,429.257996 
	C1038.298096,427.896393 1040.727783,427.585571 1042.693237,426.836060 
	C1044.918945,425.987366 1047.249390,425.360840 1049.373047,424.311401 
	C1051.581299,423.220154 1053.619141,420.581665 1055.693237,420.621338 
	C1066.942383,420.836487 1070.213501,409.164825 1079.375000,406.520782 
	C1079.196411,405.885498 1079.017944,405.250214 1078.839478,404.614929 
	C1074.329956,404.816498 1069.820435,405.018066 1064.971191,405.234833 
	C1069.681030,399.847046 1080.952026,399.924500 1084.931885,405.449280 
	C1083.041138,406.926422 1081.183594,408.505096 1079.194092,409.894958 
	C1077.307617,411.212952 1075.282715,412.333069 1072.681641,413.931732 
	C1074.547729,415.928772 1076.096436,417.586273 1078.610352,420.276703 
	C1075.621216,421.123505 1072.885254,422.757874 1070.392456,422.446381 
	C1062.362549,421.442902 1056.052002,425.172302 1048.989868,427.947113 
	C1040.022461,431.470490 1032.049683,436.561951 1023.835205,441.171051 
	C1016.462585,445.307770 1013.851990,453.361450 1011.723206,461.440948 
	C1009.843018,468.577301 1012.892578,474.430298 1016.229980,479.583405 
	C1018.834412,483.604828 1023.998047,485.991486 1028.117798,488.975677 
	C1028.557617,489.294159 1029.777222,488.975098 1030.374634,488.568878 
	C1036.054443,484.707336 1041.332642,485.320740 1046.556641,489.562744 
	C1047.352051,490.208588 1049.031006,489.638763 1050.168579,490.023346 
	C1051.564819,490.495361 1052.821533,491.379608 1053.283325,492.945404 
	C1049.183350,493.516388 1045.083374,494.087372 1041.497314,494.586761 
	C1042.326172,493.569275 1043.358276,492.302246 1044.390259,491.035248 
	C1038.963257,490.559998 1034.022705,488.190674 1029.847290,492.151276 
	C1029.467529,492.511444 1028.336304,492.671356 1027.993408,492.389587 
	C1022.630615,487.983734 1014.730286,486.568970 1012.070129,478.972595 
	C1011.850525,478.345398 1011.747437,477.639648 1011.389954,477.104004 
	C1004.085388,466.157562 1008.511963,456.252380 1014.309570,446.146545 
z"/>
<path fill="#0EA0D7" opacity="1.000000" stroke="none" 
	d="
M1090.155640,518.336731 
	C1090.949219,517.957764 1091.666992,517.955872 1092.743652,517.974487 
	C1094.549927,521.664124 1096.587769,525.227051 1097.272217,529.033386 
	C1097.907104,532.563904 1097.118530,536.355713 1096.911987,540.029907 
	C1096.820923,541.648743 1096.050171,543.473999 1096.562134,544.840698 
	C1099.143677,551.732849 1101.800049,558.620117 1104.920776,565.279114 
	C1107.082764,569.892273 1114.661621,570.995789 1119.297607,566.916138 
	C1124.348877,562.471375 1129.945312,558.083679 1130.864746,550.447998 
	C1131.014526,549.204102 1132.794678,547.772339 1134.153564,547.123291 
	C1140.748047,543.973633 1143.382935,539.188293 1142.020020,531.799133 
	C1140.711060,524.703430 1145.806885,520.566895 1150.440674,516.523499 
	C1154.660034,512.841919 1159.848022,510.047272 1161.185425,503.934265 
	C1161.317139,503.332489 1161.335571,502.705963 1161.404175,502.112671 
	C1159.660522,501.663177 1158.159058,501.276031 1156.493652,500.587585 
	C1158.999268,500.035065 1161.668579,499.783936 1164.337891,499.532776 
	C1163.922119,502.505341 1164.192871,505.824799 1162.911743,508.360138 
	C1161.408691,511.334808 1158.680054,513.750732 1156.257080,516.184204 
	C1153.455200,518.998352 1150.020020,521.265503 1147.611206,524.355896 
	C1146.153931,526.225586 1145.300537,529.312683 1145.604126,531.668823 
	C1146.538452,538.921448 1144.232544,544.224854 1138.185913,548.331726 
	C1136.413330,549.535583 1134.896484,551.826050 1134.293457,553.915955 
	C1131.969482,561.971741 1120.923218,571.722900 1112.575073,572.612183 
	C1106.348999,573.275330 1103.411865,571.524719 1101.009399,565.670410 
	C1098.566528,559.717590 1096.017334,553.802795 1093.796265,547.767700 
	C1093.085205,545.835754 1092.459961,543.225220 1093.189575,541.522461 
	C1096.287231,534.292847 1094.234131,527.926270 1090.871826,521.571289 
	C1090.420288,520.717957 1090.334839,519.671082 1090.155640,518.336731 
z"/>
<path fill="#0EA0D7" opacity="1.000000" stroke="none" 
	d="
M1150.428101,556.559814 
	C1149.118042,556.206665 1147.728027,555.965576 1147.276733,555.182983 
	C1145.821411,552.659790 1149.397705,543.450073 1151.925781,541.974182 
	C1153.948364,540.793335 1155.706299,539.159180 1158.227539,538.052856 
	C1158.635620,545.323547 1154.789307,550.904907 1150.428101,556.559814 
z"/>
<path fill="#42C17D" opacity="1.000000" stroke="none" 
	d="
M1152.468872,445.338013 
	C1153.107666,443.615234 1153.990479,442.208435 1154.873291,440.801605 
	C1155.335938,442.077667 1155.711792,443.394043 1156.281738,444.620239 
	C1157.101318,446.383240 1158.236938,448.016418 1158.901611,449.828247 
	C1159.355835,451.066071 1159.409302,452.531555 1159.274658,453.858032 
	C1159.231567,454.282227 1157.512085,455.003845 1157.409424,454.880829 
	C1156.545288,453.844177 1155.764648,452.697754 1155.178467,451.478729 
	C1154.265869,449.580780 1153.526001,447.599823 1152.468872,445.338013 
z"/>
<path fill="#42C17D" opacity="1.000000" stroke="none" 
	d="
M1046.293457,415.484436 
	C1045.394531,418.453217 1044.449829,421.083862 1043.505005,423.714508 
	C1042.900269,423.485321 1042.295532,423.256134 1041.690674,423.026917 
	C1042.100952,421.826202 1042.511230,420.625458 1042.998413,419.199738 
	C1041.789185,418.791534 1040.615356,418.395264 1039.441406,417.998962 
	C1038.850464,417.317383 1038.259521,416.635773 1037.668579,415.954193 
	C1039.412598,415.084839 1041.084961,413.876984 1042.930298,413.486511 
	C1043.876709,413.286285 1045.131958,414.546326 1046.293457,415.484436 
z"/>
<path fill="#FAFDFC" opacity="1.000000" stroke="none" 
	d="
M1106.095581,450.783020 
	C1107.376099,451.809845 1108.426880,452.573456 1109.476196,453.336029 
	C1108.559692,454.212769 1107.707031,455.028412 1106.854370,455.844055 
	C1107.312866,456.284790 1107.771240,456.725494 1108.229614,457.166229 
	C1110.027832,455.266479 1111.826050,453.366730 1114.061768,451.004761 
	C1114.505127,451.549133 1115.765015,453.296082 1117.239380,454.838257 
	C1118.277832,455.924622 1119.607178,456.732819 1120.806763,457.665131 
	C1121.246704,456.209930 1121.707764,454.760651 1122.115723,453.296570 
	C1122.273682,452.730072 1122.311401,452.130005 1122.455322,451.219177 
	C1123.867065,454.071136 1124.492676,457.649597 1126.486938,458.752045 
	C1128.751831,460.004028 1132.240967,459.041229 1135.410156,459.041229 
	C1135.096680,461.139618 1134.795288,463.157440 1134.406982,465.756653 
	C1130.867188,465.320282 1127.309204,465.056000 1123.823975,464.403320 
	C1120.279785,463.739532 1117.272827,461.805542 1113.048828,463.708679 
	C1111.081055,464.595276 1105.230469,461.796783 1104.561035,459.617645 
	C1103.115356,454.911469 1100.183594,455.398468 1096.970947,455.265594 
	C1094.894165,455.179657 1092.811035,455.249390 1090.266113,455.249390 
	C1095.617676,447.492249 1100.425293,446.209290 1106.095581,450.783020 
z"/>
<path fill="#FAFDFC" opacity="1.000000" stroke="none" 
	d="
M1139.727417,446.427185 
	C1138.529419,446.500641 1137.125366,446.131775 1135.752686,446.225098 
	C1134.169678,446.332733 1132.614502,446.848145 1131.025757,447.191162 
	C1131.353394,443.111053 1133.557495,442.873901 1139.727417,446.427185 
z"/>
</svg>