<svg version="1.1" id="Layer_1" xmlns="http://www.w3.org/2000/svg" xmlns:xlink="http://www.w3.org/1999/xlink" x="0px" y="0px"
	 width="100%" viewBox="360 330 860 280" enable-background="new 360 330 860 280" xml:space="preserve">
<path fill="#000000" opacity="1.000000" stroke="none" 
	d="
M939.000000,1025.000000 
	C626.000000,1025.000000 313.500000,1025.000000 1.000000,1025.000000 
	C1.000000,683.666687 1.000000,342.333344 1.000000,1.000000 
	C513.000000,1.000000 1025.000000,1.000000 1537.000000,1.000000 
	C1537.000000,342.333344 1537.000000,683.666687 1537.000000,1025.000000 
	C1337.833374,1025.000000 1138.666626,1025.000000 939.000000,1025.000000 
M1034.004639,577.615906 
	C1034.332764,577.760986 1034.660767,577.906006 1035.362305,578.602356 
	C1050.621460,588.533936 1067.279175,594.335754 1085.509888,595.158936 
	C1134.086670,597.352356 1177.193359,567.646179 1189.491699,522.695190 
	C1198.026855,491.499084 1192.176758,462.704468 1171.882935,436.394928 
	C1159.541992,420.661926 1143.812988,409.738678 1124.292114,402.912842 
	C1110.057617,398.003815 1095.355835,396.148193 1080.500244,398.094025 
	C1042.913818,403.017212 1015.685547,422.946075 999.626038,457.124817 
	C988.296570,481.236877 987.799683,506.236511 997.552307,531.196960 
	C997.552307,531.196960 997.573730,531.230286 997.619507,531.935120 
	C997.956116,532.533569 998.292664,533.132019 998.642090,534.445251 
	C1004.791199,549.475281 1014.357178,561.922852 1027.025391,571.967102 
	C1027.025391,571.967102 1026.974731,571.965393 1027.285156,572.490295 
	C1027.813721,572.766724 1028.342163,573.043091 1028.853516,573.153809 
	C1028.853516,573.153809 1028.705078,573.229370 1028.961914,573.808960 
	C1029.977783,574.547241 1030.993774,575.285522 1032.004150,575.987244 
	C1032.004150,575.987244 1031.968018,575.994019 1032.304199,576.495911 
	C1032.839111,576.752014 1033.374146,577.008057 1033.924072,577.100525 
	C1033.924072,577.100525 1033.761230,577.122681 1034.004639,577.615906 
M962.173645,540.500061 
	C962.173523,525.835510 962.328918,511.168762 962.124207,496.507050 
	C961.959351,484.697113 962.072449,472.814667 960.782532,461.105347 
	C958.913086,444.135498 952.402832,429.023102 937.499451,419.313660 
	C914.444702,404.293518 872.914978,406.021698 853.347290,436.677429 
	C852.524414,437.966553 851.647522,439.221222 850.566406,440.834198 
	C840.924683,419.665344 824.288330,410.679810 802.443970,410.348083 
	C780.918884,410.021210 763.838867,418.436310 751.443848,436.881012 
	C751.443848,429.426392 751.443848,421.971771 751.443848,414.537476 
	C741.208984,414.537476 731.655945,414.537476 721.957153,414.537476 
	C721.957153,469.821472 721.957153,524.751770 721.957153,579.748047 
	C732.420166,579.748047 742.629639,579.748047 753.016235,579.748047 
	C753.016235,577.924500 753.016418,576.441772 753.016174,574.959045 
	C753.011230,543.631226 752.992188,512.303406 753.006104,480.975555 
	C753.015076,460.677094 762.988342,445.541168 780.112915,439.740204 
	C802.167053,432.269348 820.553345,442.562561 825.165344,465.344757 
	C826.409668,471.491638 826.805359,477.898102 826.832825,484.188690 
	C826.967590,515.016724 826.843384,545.845825 826.828674,576.674561 
	C826.828125,577.768066 827.017700,578.861694 827.102661,579.781860 
	C837.352173,579.781860 847.274170,579.781860 857.543640,579.781860 
	C857.543640,577.819519 857.541016,576.177429 857.543945,574.535339 
	C857.599426,543.206726 857.401367,511.874786 857.810425,480.550781 
	C858.042969,462.746124 864.187439,447.946899 881.941711,440.352386 
	C902.284851,431.650513 923.526978,441.345032 928.604370,461.987823 
	C929.943176,467.431030 930.733337,473.145447 930.786743,478.744751 
	C931.007324,501.905792 930.845825,525.070435 930.830261,548.233704 
	C930.823242,558.686646 930.829102,569.139648 930.829102,579.767212 
	C941.525452,579.767212 951.733459,579.767212 962.173279,579.767212 
	C962.173279,566.797546 962.173279,554.148804 962.173645,540.500061 
M555.218567,549.407715 
	C559.387695,559.526794 563.556824,569.645813 567.701050,579.704468 
	C579.020325,579.704468 590.186279,579.704468 601.987244,579.704468 
	C569.026306,501.137512 536.292053,423.111053 503.456390,344.842865 
	C494.720428,344.842865 486.071198,344.993896 477.432190,344.763123 
	C474.294220,344.679321 472.819611,345.627838 471.598969,348.587891 
	C460.444092,375.638580 449.113403,402.616821 437.813110,429.607452 
	C422.724609,465.646301 407.629578,501.682434 392.512177,537.709167 
	C386.674164,551.621765 380.767090,565.505371 374.721863,579.803345 
	C386.338043,579.803345 397.426788,579.803345 408.714233,579.803345 
	C409.135437,578.871887 409.645325,577.844971 410.072510,576.784790 
	C417.779266,557.658142 425.495544,538.535156 433.152344,519.388489 
	C434.208496,516.747375 435.357086,515.231506 438.788788,515.249573 
	C471.606842,515.422791 504.426575,515.415466 537.244629,515.235657 
	C540.767456,515.216370 542.137817,516.520630 543.287720,519.503418 
	C547.055664,529.277283 551.066528,538.957458 555.218567,549.407715 
M687.677307,581.110779 
	C690.849792,580.284241 694.022278,579.457703 697.376099,578.583923 
	C696.231689,570.005127 695.146912,561.872986 694.085815,553.918518 
	C689.579834,554.980713 685.596436,556.184631 681.524475,556.832703 
	C665.742737,559.344482 655.916687,552.719666 653.987061,538.332092 
	C653.501526,534.712280 653.226685,531.035217 653.224670,527.384277 
	C653.209412,499.899261 653.282288,472.414185 653.345764,444.929169 
	C653.349487,443.340973 653.511902,441.753174 653.626465,439.697662 
	C667.578735,439.697662 681.157776,439.697662 694.613464,439.697662 
	C694.613464,430.971710 694.613464,422.750977 694.613464,414.019714 
	C680.630676,414.019714 667.059570,414.019714 653.174927,414.019714 
	C653.174927,398.717896 653.174927,383.938507 653.174927,369.108765 
	C642.633179,369.108765 632.424255,369.108765 621.927368,369.108765 
	C621.927368,384.247894 621.927368,399.015564 621.927368,414.268860 
	C611.437012,414.268860 601.231262,414.268860 590.963989,414.268860 
	C590.963989,423.044373 590.963989,431.328247 590.963989,440.087524 
	C601.451721,440.087524 611.699646,440.087524 622.029846,440.087524 
	C622.029846,470.033783 621.884033,499.503235 622.135559,528.969299 
	C622.196106,536.060120 623.003052,543.259399 624.458984,550.200745 
	C628.102173,567.569702 640.461243,579.781189 657.583557,581.716736 
	C667.199036,582.803650 677.084473,581.501465 687.677307,581.110779 
z"/>
<path fill="#FCFBFC" opacity="1.000000" stroke="none" 
	d="
M962.173462,541.000122 
	C962.173279,554.148804 962.173279,566.797546 962.173279,579.767212 
	C951.733459,579.767212 941.525452,579.767212 930.829102,579.767212 
	C930.829102,569.139648 930.823242,558.686646 930.830261,548.233704 
	C930.845825,525.070435 931.007324,501.905792 930.786743,478.744751 
	C930.733337,473.145447 929.943176,467.431030 928.604370,461.987823 
	C923.526978,441.345032 902.284851,431.650513 881.941711,440.352386 
	C864.187439,447.946899 858.042969,462.746124 857.810425,480.550781 
	C857.401367,511.874786 857.599426,543.206726 857.543945,574.535339 
	C857.541016,576.177429 857.543640,577.819519 857.543640,579.781860 
	C847.274170,579.781860 837.352173,579.781860 827.102661,579.781860 
	C827.017700,578.861694 826.828125,577.768066 826.828674,576.674561 
	C826.843384,545.845825 826.967590,515.016724 826.832825,484.188690 
	C826.805359,477.898102 826.409668,471.491638 825.165344,465.344757 
	C820.553345,442.562561 802.167053,432.269348 780.112915,439.740204 
	C762.988342,445.541168 753.015076,460.677094 753.006104,480.975555 
	C752.992188,512.303406 753.011230,543.631226 753.016174,574.959045 
	C753.016418,576.441772 753.016235,577.924500 753.016235,579.748047 
	C742.629639,579.748047 732.420166,579.748047 721.957153,579.748047 
	C721.957153,524.751770 721.957153,469.821472 721.957153,414.537476 
	C731.655945,414.537476 741.208984,414.537476 751.443848,414.537476 
	C751.443848,421.971771 751.443848,429.426392 751.443848,436.881012 
	C763.838867,418.436310 780.918884,410.021210 802.443970,410.348083 
	C824.288330,410.679810 840.924683,419.665344 850.566406,440.834198 
	C851.647522,439.221222 852.524414,437.966553 853.347290,436.677429 
	C872.914978,406.021698 914.444702,404.293518 937.499451,419.313660 
	C952.402832,429.023102 958.913086,444.135498 960.782532,461.105347 
	C962.072449,472.814667 961.959351,484.697113 962.124207,496.507050 
	C962.328918,511.168762 962.173523,525.835510 962.173462,541.000122 
z"/>
<path fill="#FCFBFC" opacity="1.000000" stroke="none" 
	d="
M555.101257,549.040649 
	C551.066528,538.957458 547.055664,529.277283 543.287720,519.503418 
	C542.137817,516.520630 540.767456,515.216370 537.244629,515.235657 
	C504.426575,515.415466 471.606842,515.422791 438.788788,515.249573 
	C435.357086,515.231506 434.208496,516.747375 433.152344,519.388489 
	C425.495544,538.535156 417.779266,557.658142 410.072510,576.784790 
	C409.645325,577.844971 409.135437,578.871887 408.714233,579.803345 
	C397.426788,579.803345 386.338043,579.803345 374.721863,579.803345 
	C380.767090,565.505371 386.674164,551.621765 392.512177,537.709167 
	C407.629578,501.682434 422.724609,465.646301 437.813110,429.607452 
	C449.113403,402.616821 460.444092,375.638580 471.598969,348.587891 
	C472.819611,345.627838 474.294220,344.679321 477.432190,344.763123 
	C486.071198,344.993896 494.720428,344.842865 503.456390,344.842865 
	C536.292053,423.111053 569.026306,501.137512 601.987244,579.704468 
	C590.186279,579.704468 579.020325,579.704468 567.701050,579.704468 
	C563.556824,569.645813 559.387695,559.526794 555.101257,549.040649 
M458.517731,487.620941 
	C482.369080,487.620941 506.220428,487.620941 530.513306,487.620941 
	C516.073486,451.444702 501.995911,416.176117 487.988098,381.082214 
	C473.863556,416.436401 459.755157,451.750214 445.423004,487.624115 
	C449.925079,487.624115 453.726379,487.624115 458.517731,487.620941 
z"/>
<path fill="#FCFBFC" opacity="1.000000" stroke="none" 
	d="
M687.262817,581.193237 
	C677.084473,581.501465 667.199036,582.803650 657.583557,581.716736 
	C640.461243,579.781189 628.102173,567.569702 624.458984,550.200745 
	C623.003052,543.259399 622.196106,536.060120 622.135559,528.969299 
	C621.884033,499.503235 622.029846,470.033783 622.029846,440.087524 
	C611.699646,440.087524 601.451721,440.087524 590.963989,440.087524 
	C590.963989,431.328247 590.963989,423.044373 590.963989,414.268860 
	C601.231262,414.268860 611.437012,414.268860 621.927368,414.268860 
	C621.927368,399.015564 621.927368,384.247894 621.927368,369.108765 
	C632.424255,369.108765 642.633179,369.108765 653.174927,369.108765 
	C653.174927,383.938507 653.174927,398.717896 653.174927,414.019714 
	C667.059570,414.019714 680.630676,414.019714 694.613464,414.019714 
	C694.613464,422.750977 694.613464,430.971710 694.613464,439.697662 
	C681.157776,439.697662 667.578735,439.697662 653.626465,439.697662 
	C653.511902,441.753174 653.349487,443.340973 653.345764,444.929169 
	C653.282288,472.414185 653.209412,499.899261 653.224670,527.384277 
	C653.226685,531.035217 653.501526,534.712280 653.987061,538.332092 
	C655.916687,552.719666 665.742737,559.344482 681.524475,556.832703 
	C685.596436,556.184631 689.579834,554.980713 694.085815,553.918518 
	C695.146912,561.872986 696.231689,570.005127 697.376099,578.583923 
	C694.022278,579.457703 690.849792,580.284241 687.262817,581.193237 
z"/>
<path fill="#04AFE4" opacity="1.000000" stroke="none" 
	d="
M1172.111816,437.053101 
	C1192.176758,462.704468 1198.026855,491.499084 1189.491699,522.695190 
	C1177.193359,567.646179 1134.086670,597.352356 1085.509888,595.158936 
	C1067.279175,594.335754 1050.621460,588.533936 1035.043457,578.089783 
	C1034.403564,577.425720 1034.082397,577.274231 1033.761230,577.122681 
	C1033.761230,577.122681 1033.924072,577.100525 1033.801025,576.885132 
	C1033.108032,576.444519 1032.538086,576.219299 1031.968018,575.994019 
	C1031.968018,575.994019 1032.004150,575.987244 1031.968018,575.647827 
	C1030.856201,574.615417 1029.780640,573.922424 1028.705078,573.229370 
	C1028.705078,573.229370 1028.853516,573.153809 1028.779419,572.918091 
	C1028.128418,572.443359 1027.551636,572.204346 1026.974731,571.965332 
	C1026.974731,571.965393 1027.025391,571.967102 1027.039795,571.596375 
	C1026.901978,568.101929 1028.251221,567.416931 1031.012573,568.652893 
	C1032.306396,569.231934 1033.737427,569.504944 1035.074463,569.936157 
	C1035.042725,569.955566 1035.018066,569.885498 1035.139893,570.139526 
	C1035.593018,570.550842 1035.924438,570.708191 1036.168945,570.877808 
	C1036.081909,570.890137 1036.097656,570.715149 1036.219727,571.019531 
	C1036.936523,571.530212 1037.531372,571.736450 1038.462646,572.018921 
	C1060.460205,586.155396 1083.999023,590.666138 1109.366699,586.065369 
	C1147.957031,579.066406 1177.945923,548.891357 1184.510742,510.312988 
	C1184.807617,508.568542 1185.253662,505.562958 1184.503662,505.139252 
	C1180.191650,502.703461 1181.133789,498.247345 1179.982300,494.704956 
	C1178.171021,489.132812 1175.846924,487.101013 1170.181641,487.180573 
	C1169.595337,485.897797 1169.331909,484.880768 1169.505249,483.858826 
	C1179.170654,482.113800 1181.629883,489.417175 1185.142822,495.488525 
	C1185.584595,475.914337 1179.261108,458.755737 1168.362549,442.964600 
	C1168.245239,442.588837 1167.986572,442.380035 1167.783691,442.131134 
	C1167.839600,442.091003 1167.883789,442.221100 1167.838623,441.937988 
	C1167.494019,441.443329 1167.194702,441.231781 1166.934692,441.016113 
	C1166.974121,441.011963 1166.974487,441.091278 1166.900391,440.830933 
	C1166.535767,440.373810 1166.245117,440.177002 1165.981323,439.984619 
	C1166.008057,439.989044 1166.005371,440.043304 1166.036865,439.659760 
	C1165.815674,437.736206 1165.562866,436.196198 1165.168213,433.791626 
	C1167.966187,435.105865 1170.038940,436.079468 1172.111816,437.053101 
z"/>
<path fill="#62DC8A" opacity="1.000000" stroke="none" 
	d="
M997.529297,531.236084 
	C987.799683,506.236511 988.296570,481.236877 999.626038,457.124817 
	C1015.685547,422.946075 1042.913818,403.017212 1080.500244,398.094025 
	C1095.355835,396.148193 1110.057617,398.003815 1124.323242,403.316040 
	C1118.471802,404.431396 1118.342163,404.637604 1120.574219,409.105560 
	C1092.596191,401.445557 1066.084229,403.089935 1041.773193,419.335327 
	C1011.465332,439.588074 996.112488,467.803375 998.988831,504.672455 
	C999.652161,513.175293 1002.494324,521.508118 1004.004028,529.782227 
	C1000.090942,525.828918 999.261719,526.043579 997.529297,531.236084 
z"/>
<path fill="#47DBBA" opacity="1.000000" stroke="none" 
	d="
M1120.971802,409.104645 
	C1118.342163,404.637604 1118.471802,404.431396 1124.635498,403.515503 
	C1143.812988,409.738678 1159.541992,420.661926 1171.997314,436.723999 
	C1170.038940,436.079468 1167.966187,435.105865 1165.168213,433.791626 
	C1165.562866,436.196198 1165.815674,437.736206 1165.746582,439.490601 
	C1154.359253,425.964020 1140.247803,416.494019 1123.722412,409.825989 
	C1122.823364,409.431915 1122.134644,409.325531 1121.311279,409.257294 
	C1121.176636,409.295471 1120.971802,409.104645 1120.971802,409.104645 
z"/>
<path fill="#47DBBA" opacity="1.000000" stroke="none" 
	d="
M997.540771,531.216553 
	C999.261719,526.043579 1000.090942,525.828918 1004.014160,529.871765 
	C1004.354126,530.098206 1004.319397,530.274902 1004.300659,530.621033 
	C1004.562256,531.312988 1004.842529,531.658752 1005.357300,532.253723 
	C1012.262268,547.473022 1022.263428,559.815735 1035.106201,569.916748 
	C1033.737427,569.504944 1032.306396,569.231934 1031.012573,568.652893 
	C1028.251221,567.416931 1026.901978,568.101929 1027.046143,571.620972 
	C1014.357178,561.922852 1004.791199,549.475281 998.721191,533.695801 
	C998.391479,532.374268 997.982605,531.802246 997.573730,531.230286 
	C997.573730,531.230286 997.552307,531.196960 997.540771,531.216553 
z"/>
<path fill="#47DBBA" opacity="1.000000" stroke="none" 
	d="
M1028.833496,573.519165 
	C1029.780640,573.922424 1030.856201,574.615417 1031.970703,575.666138 
	C1030.993774,575.285522 1029.977783,574.547241 1028.833496,573.519165 
z"/>
<path fill="#62DC8A" opacity="1.000000" stroke="none" 
	d="
M997.596619,531.582703 
	C997.982605,531.802246 998.391479,532.374268 998.714844,533.338379 
	C998.292664,533.132019 997.956116,532.533569 997.596619,531.582703 
z"/>
<path fill="#47DBBA" opacity="1.000000" stroke="none" 
	d="
M1032.136108,576.244995 
	C1032.538086,576.219299 1033.108032,576.444519 1033.793579,576.966980 
	C1033.374146,577.008057 1032.839111,576.752014 1032.136108,576.244995 
z"/>
<path fill="#47DBBA" opacity="1.000000" stroke="none" 
	d="
M1027.129883,572.227783 
	C1027.551636,572.204346 1028.128418,572.443359 1028.788086,573.000977 
	C1028.342163,573.043091 1027.813721,572.766724 1027.129883,572.227783 
z"/>
<path fill="#47DBBA" opacity="1.000000" stroke="none" 
	d="
M1033.882935,577.369263 
	C1034.082397,577.274231 1034.403564,577.425720 1034.856812,577.814148 
	C1034.660767,577.906006 1034.332764,577.760986 1033.882935,577.369263 
z"/>
<path fill="#010403" opacity="1.000000" stroke="none" 
	d="
M458.022705,487.622528 
	C453.726379,487.624115 449.925079,487.624115 445.423004,487.624115 
	C459.755157,451.750214 473.863556,416.436401 487.988098,381.082214 
	C501.995911,416.176117 516.073486,451.444702 530.513306,487.620941 
	C506.220428,487.620941 482.369080,487.620941 458.022705,487.622528 
z"/>
<path fill="#010403" opacity="1.000000" stroke="none" 
	d="
M1035.074463,569.936157 
	C1022.263428,559.815735 1012.262268,547.473022 1005.338257,531.918640 
	C1004.829651,530.981201 1004.574524,530.628052 1004.319397,530.274902 
	C1004.319397,530.274902 1004.354126,530.098206 1004.343994,530.008667 
	C1002.494324,521.508118 999.652161,513.175293 998.988831,504.672455 
	C996.112488,467.803375 1011.465332,439.588074 1041.773193,419.335327 
	C1066.084229,403.089935 1092.596191,401.445557 1120.574219,409.105560 
	C1120.971802,409.104645 1121.176636,409.295471 1121.561279,409.496521 
	C1122.608276,409.836273 1123.270630,409.974945 1123.932861,410.113647 
	C1140.247803,416.494019 1154.359253,425.964020 1165.715088,439.874146 
	C1166.005371,440.043304 1166.008057,439.989044 1166.045532,440.255096 
	C1166.380127,440.711212 1166.677368,440.901245 1166.974487,441.091278 
	C1166.974487,441.091278 1166.974121,441.011963 1166.961304,441.311371 
	C1167.260254,441.814240 1167.572021,442.017670 1167.883789,442.221100 
	C1167.883789,442.221100 1167.839600,442.091003 1167.831909,442.409851 
	C1167.956543,442.862976 1168.088867,442.997253 1168.221191,443.131561 
	C1179.261108,458.755737 1185.584595,475.914337 1185.142822,495.488525 
	C1181.629883,489.417175 1179.170654,482.113800 1169.271729,483.580688 
	C1167.681763,482.622009 1166.767700,481.360931 1165.840942,481.351440 
	C1161.949341,481.311493 1158.261841,481.190125 1155.867432,477.373962 
	C1155.748169,477.183807 1154.137939,477.929138 1153.221924,478.238892 
	C1155.523315,480.790527 1157.437988,484.062073 1160.287598,485.593079 
	C1161.734253,486.370270 1165.372559,484.572937 1165.452393,487.744965 
	C1165.510132,490.039185 1164.000977,493.277954 1162.138062,494.533264 
	C1157.807739,497.450806 1152.840942,499.423462 1148.248291,501.720947 
	C1142.971924,493.465363 1137.962402,485.627167 1132.520142,477.112122 
	C1132.488647,477.214203 1132.826294,476.121338 1133.356323,474.728699 
	C1134.477905,471.377594 1135.407104,468.326263 1136.556641,464.551025 
	C1132.694092,464.362244 1129.849854,463.803894 1127.139038,464.187805 
	C1122.948120,464.781372 1122.623657,462.190735 1121.910278,459.024231 
	C1128.657959,459.024231 1135.038086,459.024231 1141.461182,459.024231 
	C1139.425537,455.411652 1137.730591,452.403809 1135.883667,449.126099 
	C1135.426758,449.307892 1134.312744,450.191376 1133.322144,450.069672 
	C1128.828979,449.517822 1125.786011,450.782166 1123.752686,455.215546 
	C1122.541504,457.856354 1115.197754,458.549561 1112.479858,457.081787 
	C1109.176147,455.297546 1105.375244,451.785858 1102.517212,452.401276 
	C1097.303467,453.523956 1091.912231,456.342102 1087.924561,459.930389 
	C1083.943481,463.512817 1080.659790,463.499603 1076.257202,461.877167 
	C1076.735962,457.017059 1078.350586,454.136963 1083.809570,455.228027 
	C1084.960571,455.458099 1087.166504,454.544006 1087.519043,453.629761 
	C1088.003418,452.374084 1087.332764,450.568207 1086.861206,449.092651 
	C1086.623901,448.350616 1085.733643,447.817322 1085.318237,447.379059 
	C1089.560791,445.041412 1093.341187,442.651154 1097.380127,440.836365 
	C1100.278809,439.533966 1103.671631,439.334473 1106.576660,438.042114 
	C1110.422974,436.330994 1114.436035,434.516815 1117.526123,431.784241 
	C1119.074951,430.414581 1118.738159,426.912506 1119.320190,424.050110 
	C1116.758545,424.879395 1113.114624,425.143860 1110.911011,427.062531 
	C1109.155029,428.591400 1109.156250,432.138550 1108.280273,435.120789 
	C1106.840454,433.293335 1105.831543,432.012787 1104.590088,430.437134 
	C1104.196899,431.716583 1103.930420,432.583649 1103.571411,433.751831 
	C1101.991577,432.748108 1100.574219,431.847626 1099.156860,430.947113 
	C1099.736572,431.228699 1100.316406,431.510284 1100.896118,431.791870 
	C1102.822266,429.073761 1104.668335,426.294128 1106.695068,423.653137 
	C1109.174561,420.422089 1112.203003,419.325348 1116.351318,420.732513 
	C1118.613159,421.499725 1121.296631,421.238556 1123.763062,421.063843 
	C1124.548462,421.008240 1125.247681,419.737518 1125.986328,419.022827 
	C1125.214355,418.519623 1124.488892,417.689972 1123.661987,417.572021 
	C1120.733521,417.154327 1117.768433,416.760468 1114.820679,416.784241 
	C1112.562988,416.802399 1109.772339,416.753998 1108.158691,417.976196 
	C1103.677490,421.370270 1099.581299,425.305939 1095.587646,429.283600 
	C1094.745117,430.122894 1094.324097,432.388580 1094.845825,433.424469 
	C1097.370728,438.438263 1094.246826,439.892181 1089.903687,441.467438 
	C1089.101807,439.258301 1088.548828,437.047394 1087.499268,435.104492 
	C1086.881958,433.961456 1084.641846,432.370911 1084.546631,432.461945 
	C1081.473999,435.399048 1078.544800,438.490601 1075.697388,441.651886 
	C1075.439087,441.938660 1075.649780,443.084747 1076.018433,443.428741 
	C1078.434326,445.682739 1081.003662,447.773132 1083.403564,450.043091 
	C1083.983887,450.592041 1084.116089,451.614777 1084.768188,453.166199 
	C1079.064575,452.534943 1073.822021,452.500732 1073.124512,459.198761 
	C1072.861816,461.721924 1073.900391,464.380585 1074.459839,467.643524 
	C1073.198608,469.771820 1071.929443,473.670258 1069.286865,476.031647 
	C1062.357544,482.223328 1060.393555,488.928711 1061.028442,498.496826 
	C1061.557251,506.465912 1065.240356,510.805206 1070.099243,515.864868 
	C1073.847046,517.007263 1077.486938,517.678894 1080.988770,518.787415 
	C1083.467285,519.572083 1086.792725,520.331604 1087.904175,522.196594 
	C1089.827148,525.422852 1090.405762,529.476990 1091.397705,533.223816 
	C1092.360718,536.861877 1093.394165,540.308716 1091.570557,544.296082 
	C1090.480835,546.678528 1090.724121,550.176514 1091.533203,552.816101 
	C1093.216675,558.308716 1095.674438,563.563904 1097.814331,568.916626 
	C1099.398926,572.880127 1101.181641,576.762268 1106.259033,576.881042 
	C1116.184570,577.113220 1128.412598,568.218262 1130.629395,558.570557 
	C1131.319824,555.565857 1132.535645,554.146606 1134.961792,552.695435 
	C1140.989380,549.090210 1142.635986,544.267578 1141.397217,537.451294 
	C1141.026001,535.408264 1141.476196,532.574768 1142.706543,531.015991 
	C1145.231567,527.816833 1148.677368,525.364624 1151.482544,522.360657 
	C1154.143066,519.511841 1156.935181,516.604248 1158.768311,513.232544 
	C1159.870972,511.204498 1159.250977,508.239716 1159.405029,505.695923 
	C1157.048584,505.876129 1154.693481,506.077179 1152.334595,506.216125 
	C1151.938843,506.239441 1151.527100,505.993988 1150.626587,505.723969 
	C1151.778320,504.726166 1152.495483,503.679932 1153.462769,503.334137 
	C1161.299683,500.532898 1168.129028,496.737946 1170.093018,487.708527 
	C1170.117310,487.596588 1170.362549,487.532654 1170.504761,487.446350 
	C1175.846924,487.101013 1178.171021,489.132812 1179.982300,494.704956 
	C1181.133789,498.247345 1180.191650,502.703461 1184.503662,505.139252 
	C1185.253662,505.562958 1184.807617,508.568542 1184.510742,510.312988 
	C1177.945923,548.891357 1147.957031,579.066406 1109.366699,586.065369 
	C1083.999023,590.666138 1060.460205,586.155396 1038.282471,571.769836 
	C1037.209717,571.201416 1036.653687,570.958313 1036.097656,570.715149 
	C1036.097656,570.715149 1036.081909,570.890137 1036.055786,570.616211 
	C1035.692505,570.190002 1035.355225,570.037781 1035.018066,569.885498 
	C1035.018066,569.885498 1035.042725,569.955566 1035.074463,569.936157 
M1077.778320,415.942566 
	C1076.414307,417.063751 1075.065430,418.203827 1073.683228,419.302063 
	C1070.864502,421.541595 1068.086792,423.839294 1065.177734,425.955933 
	C1063.314575,427.311615 1061.263550,429.360474 1059.267700,429.394409 
	C1054.372681,429.477631 1050.829712,431.634521 1047.301880,434.583374 
	C1045.952271,435.711517 1043.846069,435.921967 1042.101318,436.593506 
	C1040.168457,437.337402 1038.066162,437.844788 1036.370728,438.960938 
	C1032.720337,441.364044 1029.283203,444.091339 1025.758667,446.685944 
	C1025.425171,446.273163 1025.091675,445.860382 1024.758179,445.447601 
	C1025.496338,443.076324 1026.234619,440.705078 1027.183105,437.658539 
	C1021.708374,439.904449 1023.002319,446.265442 1018.051575,449.224304 
	C1017.654663,450.088379 1016.730042,452.343842 1015.604980,454.494354 
	C1013.834351,457.878845 1011.452026,461.023682 1010.192200,464.576202 
	C1008.312805,469.876129 1006.766174,475.459869 1009.218262,481.064728 
	C1010.134033,483.158051 1012.167542,484.915833 1012.585388,487.043762 
	C1013.681396,492.625488 1018.944946,493.274384 1022.265869,496.220032 
	C1026.262329,499.764862 1029.749878,500.679626 1034.696533,497.621643 
	C1036.746704,496.354187 1040.401123,497.682007 1043.326050,497.829620 
	C1042.925293,499.315948 1042.524414,500.802277 1042.127563,502.298462 
	C1045.341064,501.875824 1048.813721,497.131622 1051.564331,501.817688 
	C1051.814453,501.249695 1052.411865,499.892517 1053.376099,497.701904 
	C1050.949707,497.701904 1048.899048,497.701904 1046.853027,497.704071 
	C1042.228149,492.844208 1036.845337,492.269562 1030.684326,495.869293 
	C1029.958130,496.293640 1028.645264,496.674988 1028.113403,496.317932 
	C1024.124146,493.640564 1019.231384,491.518463 1016.558228,487.821960 
	C1009.068542,477.465240 1012.255432,459.329437 1022.400208,451.687958 
	C1027.747681,447.660065 1033.541016,444.224030 1039.139893,440.530975 
	C1039.409058,440.353424 1039.756592,440.142181 1040.046143,440.170135 
	C1046.528931,440.795746 1050.892822,436.487671 1055.868774,433.526489 
	C1057.197144,432.735992 1058.926392,432.342773 1060.492310,432.279877 
	C1065.210693,432.090332 1069.952271,432.333923 1074.654785,431.994263 
	C1075.870728,431.906433 1076.976929,430.298248 1078.285278,429.269012 
	C1075.835449,427.378601 1074.001587,425.963501 1072.072998,424.475311 
	C1076.187378,421.393524 1079.940674,418.582245 1084.652588,415.052948 
	C1081.617798,413.670410 1079.819458,412.851166 1077.126709,411.893188 
	C1072.343872,411.719910 1067.645996,411.843353 1063.937500,415.585327 
	C1066.246094,415.880646 1068.391724,415.312012 1070.565308,415.169708 
	C1073.005127,415.009949 1075.470093,415.235413 1077.778320,415.942566 
z"/>
<path fill="#18A2B0" opacity="1.000000" stroke="none" 
	d="
M1133.163818,475.028503 
	C1132.826294,476.121338 1132.488647,477.214203 1132.520142,477.112122 
	C1137.962402,485.627167 1142.971924,493.465363 1148.248291,501.720947 
	C1152.840942,499.423462 1157.807739,497.450806 1162.138062,494.533264 
	C1164.000977,493.277954 1165.510132,490.039185 1165.452393,487.744965 
	C1165.372559,484.572937 1161.734253,486.370270 1160.287598,485.593079 
	C1157.437988,484.062073 1155.523315,480.790527 1153.221924,478.238892 
	C1154.137939,477.929138 1155.748169,477.183807 1155.867432,477.373962 
	C1158.261841,481.190125 1161.949341,481.311493 1165.840942,481.351440 
	C1166.767700,481.360931 1167.681763,482.622009 1168.835205,483.585602 
	C1169.331909,484.880768 1169.595337,485.897797 1170.181641,487.180573 
	C1170.362549,487.532654 1170.117310,487.596588 1170.093018,487.708527 
	C1168.129028,496.737946 1161.299683,500.532898 1153.462769,503.334137 
	C1152.495483,503.679932 1151.778320,504.726166 1150.626587,505.723969 
	C1151.527100,505.993988 1151.938843,506.239441 1152.334595,506.216125 
	C1154.693481,506.077179 1157.048584,505.876129 1159.405029,505.695923 
	C1159.250977,508.239716 1159.870972,511.204498 1158.768311,513.232544 
	C1156.935181,516.604248 1154.143066,519.511841 1151.482544,522.360657 
	C1148.677368,525.364624 1145.231567,527.816833 1142.706543,531.015991 
	C1141.476196,532.574768 1141.026001,535.408264 1141.397217,537.451294 
	C1142.635986,544.267578 1140.989380,549.090210 1134.961792,552.695435 
	C1132.535645,554.146606 1131.319824,555.565857 1130.629395,558.570557 
	C1128.412598,568.218262 1116.184570,577.113220 1106.259033,576.881042 
	C1101.181641,576.762268 1099.398926,572.880127 1097.814331,568.916626 
	C1095.674438,563.563904 1093.216675,558.308716 1091.533203,552.816101 
	C1090.724121,550.176514 1090.480835,546.678528 1091.570557,544.296082 
	C1093.394165,540.308716 1092.360718,536.861877 1091.397705,533.223816 
	C1090.405762,529.476990 1089.827148,525.422852 1087.904175,522.196594 
	C1086.792725,520.331604 1083.467285,519.572083 1080.988770,518.787415 
	C1077.486938,517.678894 1073.847046,517.007263 1070.136963,515.357422 
	C1070.131348,513.560486 1070.254761,512.554932 1070.612793,511.661194 
	C1071.254639,512.314575 1071.661987,512.856079 1072.074219,513.636841 
	C1072.412109,513.957153 1072.744995,514.038269 1073.443115,514.293335 
	C1076.243774,514.624207 1078.695801,515.042053 1081.111572,514.888123 
	C1087.738770,514.465759 1091.265503,517.839539 1091.302124,524.411804 
	C1091.311157,526.030884 1092.641113,527.670654 1093.458618,529.251831 
	C1096.118286,534.395996 1097.874512,539.434265 1095.336914,545.399902 
	C1094.412231,547.573914 1095.395996,550.661682 1095.838135,553.276978 
	C1096.104004,554.850464 1096.965820,556.333801 1097.626587,557.828064 
	C1099.920776,563.015625 1102.244141,568.190186 1104.542725,573.339111 
	C1106.366943,572.872559 1107.333252,572.381653 1108.277222,572.421509 
	C1118.176270,572.840210 1122.340576,564.731812 1126.122070,558.361511 
	C1128.227905,554.814087 1130.106079,552.218872 1133.399170,550.063721 
	C1137.407471,547.440430 1139.288330,543.413147 1137.821777,538.806580 
	C1136.285889,533.982056 1137.885376,530.192566 1140.812012,526.892578 
	C1143.431152,523.939636 1146.614990,521.461548 1149.691040,518.946960 
	C1153.105469,516.155762 1155.717651,512.972290 1156.750610,507.728302 
	C1146.447510,509.066956 1142.564575,501.931610 1138.625122,495.170258 
	C1134.840332,488.674591 1131.469971,481.937439 1127.958496,474.970032 
	C1128.014160,474.408356 1128.029053,474.182983 1128.284912,473.761719 
	C1129.356445,473.553467 1130.187256,473.541107 1131.100830,473.808197 
	C1131.843750,474.401276 1132.503906,474.714874 1133.163818,475.028503 
z"/>
<path fill="#47DBBA" opacity="1.000000" stroke="none" 
	d="
M1036.219727,571.019531 
	C1036.653687,570.958313 1037.209717,571.201416 1037.945923,571.693604 
	C1037.531372,571.736450 1036.936523,571.530212 1036.219727,571.019531 
z"/>
<path fill="#47DBBA" opacity="1.000000" stroke="none" 
	d="
M1035.139893,570.139526 
	C1035.355225,570.037781 1035.692505,570.190002 1036.142822,570.603882 
	C1035.924438,570.708191 1035.593018,570.550842 1035.139893,570.139526 
z"/>
<path fill="#47DBBA" opacity="1.000000" stroke="none" 
	d="
M1168.362549,442.964600 
	C1168.088867,442.997253 1167.956543,442.862976 1167.776123,442.449982 
	C1167.986572,442.380035 1168.245239,442.588837 1168.362549,442.964600 
z"/>
<path fill="#47DBBA" opacity="1.000000" stroke="none" 
	d="
M1166.900391,440.830933 
	C1166.677368,440.901245 1166.380127,440.711212 1166.018799,440.250671 
	C1166.245117,440.177002 1166.535767,440.373810 1166.900391,440.830933 
z"/>
<path fill="#47DBBA" opacity="1.000000" stroke="none" 
	d="
M1167.838623,441.937988 
	C1167.572021,442.017670 1167.260254,441.814240 1166.921875,441.315491 
	C1167.194702,441.231781 1167.494019,441.443329 1167.838623,441.937988 
z"/>
<path fill="#62DC8A" opacity="1.000000" stroke="none" 
	d="
M1123.722412,409.825989 
	C1123.270630,409.974945 1122.608276,409.836273 1121.696045,409.458374 
	C1122.134644,409.325531 1122.823364,409.431915 1123.722412,409.825989 
z"/>
<path fill="#62DC8A" opacity="1.000000" stroke="none" 
	d="
M1004.300659,530.621033 
	C1004.574524,530.628052 1004.829651,530.981201 1005.103760,531.669434 
	C1004.842529,531.658752 1004.562256,531.312988 1004.300659,530.621033 
z"/>
<path fill="#47BF86" opacity="1.000000" stroke="none" 
	d="
M1133.356445,474.728729 
	C1132.503906,474.714874 1131.843750,474.401276 1131.402588,473.582764 
	C1131.458618,471.099915 1131.296021,469.121948 1131.134277,467.154877 
	C1121.718872,467.402283 1121.718872,467.402283 1119.266235,460.898163 
	C1119.048096,462.978210 1118.850708,464.859406 1118.471558,468.472626 
	C1115.604492,465.138245 1113.606689,462.814850 1112.239990,461.225403 
	C1109.993042,462.698395 1107.855347,464.099854 1105.717651,465.501282 
	C1106.965454,460.131592 1102.445190,458.634644 1100.338989,457.905579 
	C1095.163940,456.114197 1091.912231,460.238342 1088.106934,464.015045 
	C1091.223267,464.015045 1093.552368,463.950623 1095.876587,464.031342 
	C1098.788330,464.132385 1101.511353,463.635040 1102.548096,468.105682 
	C1102.957764,469.872681 1109.006226,472.424469 1110.258057,471.523132 
	C1114.516968,468.456848 1117.484863,471.423737 1120.941162,472.264191 
	C1123.306274,472.839264 1125.676147,473.393829 1128.043945,473.957581 
	C1128.029053,474.182983 1128.014160,474.408356 1127.559937,474.887268 
	C1125.372803,475.450684 1123.433472,476.401978 1121.913818,475.947998 
	C1117.648315,474.673676 1113.591187,471.934631 1109.235229,475.683167 
	C1109.044800,475.847046 1108.281982,475.480774 1107.867432,475.227783 
	C1104.629883,473.252258 1099.809326,473.650665 1098.401855,468.822357 
	C1098.249146,468.298645 1096.719849,467.858704 1095.860718,467.909821 
	C1090.151489,468.249329 1084.446411,468.686951 1078.753418,469.233154 
	C1078.096802,469.296143 1077.403320,470.134674 1076.929688,470.765808 
	C1073.550171,475.268982 1070.047729,479.695160 1066.936157,484.379425 
	C1064.524902,488.009583 1062.685181,491.942719 1064.888794,496.531616 
	C1065.349487,497.490936 1065.552124,499.102142 1065.053223,499.900208 
	C1063.178345,502.900635 1064.887939,504.848755 1066.612061,506.917328 
	C1067.885986,508.445862 1069.124146,510.004303 1070.378174,511.549377 
	C1070.254761,512.554932 1070.131348,513.560486 1069.970093,515.073486 
	C1065.240356,510.805206 1061.557251,506.465912 1061.028442,498.496826 
	C1060.393555,488.928711 1062.357544,482.223328 1069.286865,476.031647 
	C1071.929443,473.670258 1073.198608,469.771820 1074.459839,467.643524 
	C1073.900391,464.380585 1072.861816,461.721924 1073.124512,459.198761 
	C1073.822021,452.500732 1079.064575,452.534943 1084.768188,453.166199 
	C1084.116089,451.614777 1083.983887,450.592041 1083.403564,450.043091 
	C1081.003662,447.773132 1078.434326,445.682739 1076.018433,443.428741 
	C1075.649780,443.084747 1075.439087,441.938660 1075.697388,441.651886 
	C1078.544800,438.490601 1081.473999,435.399048 1084.546631,432.461945 
	C1084.641846,432.370911 1086.881958,433.961456 1087.499268,435.104492 
	C1088.548828,437.047394 1089.101807,439.258301 1089.903687,441.467438 
	C1094.246826,439.892181 1097.370728,438.438263 1094.845825,433.424469 
	C1094.324097,432.388580 1094.745117,430.122894 1095.587646,429.283600 
	C1099.581299,425.305939 1103.677490,421.370270 1108.158691,417.976196 
	C1109.772339,416.753998 1112.562988,416.802399 1114.820679,416.784241 
	C1117.768433,416.760468 1120.733521,417.154327 1123.661987,417.572021 
	C1124.488892,417.689972 1125.214355,418.519623 1125.986328,419.022827 
	C1125.247681,419.737518 1124.548462,421.008240 1123.763062,421.063843 
	C1121.296631,421.238556 1118.613159,421.499725 1116.351318,420.732513 
	C1112.203003,419.325348 1109.174561,420.422089 1106.695068,423.653137 
	C1104.668335,426.294128 1102.822266,429.073761 1100.896118,431.791870 
	C1100.316406,431.510284 1099.736572,431.228699 1099.156860,430.947113 
	C1100.574219,431.847626 1101.991577,432.748108 1103.571411,433.751831 
	C1103.930420,432.583649 1104.196899,431.716583 1104.590088,430.437134 
	C1105.831543,432.012787 1106.840454,433.293335 1108.280273,435.120789 
	C1109.156250,432.138550 1109.155029,428.591400 1110.911011,427.062531 
	C1113.114624,425.143860 1116.758545,424.879395 1119.320190,424.050110 
	C1118.738159,426.912506 1119.074951,430.414581 1117.526123,431.784241 
	C1114.436035,434.516815 1110.422974,436.330994 1106.576660,438.042114 
	C1103.671631,439.334473 1100.278809,439.533966 1097.380127,440.836365 
	C1093.341187,442.651154 1089.560791,445.041412 1085.318237,447.379059 
	C1085.733643,447.817322 1086.623901,448.350616 1086.861206,449.092651 
	C1087.332764,450.568207 1088.003418,452.374084 1087.519043,453.629761 
	C1087.166504,454.544006 1084.960571,455.458099 1083.809570,455.228027 
	C1078.350586,454.136963 1076.735962,457.017059 1076.257202,461.877167 
	C1080.659790,463.499603 1083.943481,463.512817 1087.924561,459.930389 
	C1091.912231,456.342102 1097.303467,453.523956 1102.517212,452.401276 
	C1105.375244,451.785858 1109.176147,455.297546 1112.479858,457.081787 
	C1115.197754,458.549561 1122.541504,457.856354 1123.752686,455.215546 
	C1125.786011,450.782166 1128.828979,449.517822 1133.322144,450.069672 
	C1134.312744,450.191376 1135.426758,449.307892 1135.883667,449.126099 
	C1137.730591,452.403809 1139.425537,455.411652 1141.461182,459.024231 
	C1135.038086,459.024231 1128.657959,459.024231 1121.910278,459.024231 
	C1122.623657,462.190735 1122.948120,464.781372 1127.139038,464.187805 
	C1129.849854,463.803894 1132.694092,464.362244 1136.556641,464.551025 
	C1135.407104,468.326263 1134.477905,471.377594 1133.356445,474.728729 
z"/>
<path fill="#47BF86" opacity="1.000000" stroke="none" 
	d="
M1078.021240,412.031952 
	C1079.819458,412.851166 1081.617798,413.670410 1084.652588,415.052948 
	C1079.940674,418.582245 1076.187378,421.393524 1072.072998,424.475311 
	C1074.001587,425.963501 1075.835449,427.378601 1078.285278,429.269012 
	C1076.976929,430.298248 1075.870728,431.906433 1074.654785,431.994263 
	C1069.952271,432.333923 1065.210693,432.090332 1060.492310,432.279877 
	C1058.926392,432.342773 1057.197144,432.735992 1055.868774,433.526489 
	C1050.892822,436.487671 1046.528931,440.795746 1040.046143,440.170135 
	C1039.756592,440.142181 1039.409058,440.353424 1039.139893,440.530975 
	C1033.541016,444.224030 1027.747681,447.660065 1022.400208,451.687958 
	C1012.255432,459.329437 1009.068542,477.465240 1016.558228,487.821960 
	C1019.231384,491.518463 1024.124146,493.640564 1028.113403,496.317932 
	C1028.645264,496.674988 1029.958130,496.293640 1030.684326,495.869293 
	C1036.845337,492.269562 1042.228149,492.844208 1046.850586,497.703003 
	C1048.899048,497.701904 1050.949707,497.701904 1053.376099,497.701904 
	C1052.411865,499.892517 1051.814453,501.249695 1051.564331,501.817688 
	C1048.813721,497.131622 1045.341064,501.875824 1042.125610,502.293518 
	C1042.524414,500.802277 1042.925293,499.315948 1043.326050,497.829620 
	C1040.401123,497.682007 1036.746704,496.354187 1034.696533,497.621643 
	C1029.749878,500.679626 1026.262329,499.764862 1022.265869,496.220032 
	C1018.944946,493.274384 1013.681396,492.625488 1012.585388,487.043762 
	C1012.167542,484.915833 1010.134033,483.158051 1009.218262,481.064728 
	C1006.766174,475.459869 1008.312805,469.876129 1010.192200,464.576202 
	C1011.452026,461.023682 1013.834351,457.878845 1015.604980,454.494354 
	C1016.730042,452.343842 1017.654663,450.088379 1018.051575,449.224304 
	C1023.002319,446.265442 1021.708374,439.904449 1027.183105,437.658539 
	C1026.234619,440.705078 1025.496338,443.076324 1024.758179,445.447601 
	C1025.091675,445.860382 1025.425171,446.273163 1025.758667,446.685944 
	C1029.283203,444.091339 1032.720337,441.364044 1036.370728,438.960938 
	C1038.066162,437.844788 1040.168457,437.337402 1042.101318,436.593506 
	C1043.846069,435.921967 1045.952271,435.711517 1047.301880,434.583374 
	C1050.829712,431.634521 1054.372681,429.477631 1059.267700,429.394409 
	C1061.263550,429.360474 1063.314575,427.311615 1065.177734,425.955933 
	C1068.086792,423.839294 1070.864502,421.541595 1073.683228,419.302063 
	C1075.065430,418.203827 1076.414307,417.063751 1077.890137,415.211212 
	C1078.008301,413.663879 1078.014771,412.847931 1078.021240,412.031952 
z"/>
<path fill="#62DC8A" opacity="1.000000" stroke="none" 
	d="
M1077.573975,411.962585 
	C1078.014771,412.847931 1078.008301,413.663879 1077.963013,414.886536 
	C1075.470093,415.235413 1073.005127,415.009949 1070.565308,415.169708 
	C1068.391724,415.312012 1066.246094,415.880646 1063.937500,415.585327 
	C1067.645996,411.843353 1072.343872,411.719910 1077.573975,411.962585 
z"/>
<path fill="#010403" opacity="1.000000" stroke="none" 
	d="
M1070.612793,511.661194 
	C1069.124146,510.004303 1067.885986,508.445862 1066.612061,506.917328 
	C1064.887939,504.848755 1063.178345,502.900635 1065.053223,499.900208 
	C1065.552124,499.102142 1065.349487,497.490936 1064.888794,496.531616 
	C1062.685181,491.942719 1064.524902,488.009583 1066.936157,484.379425 
	C1070.047729,479.695160 1073.550171,475.268982 1076.929688,470.765808 
	C1077.403320,470.134674 1078.096802,469.296143 1078.753418,469.233154 
	C1084.446411,468.686951 1090.151489,468.249329 1095.860718,467.909821 
	C1096.719849,467.858704 1098.249146,468.298645 1098.401855,468.822357 
	C1099.809326,473.650665 1104.629883,473.252258 1107.867432,475.227783 
	C1108.281982,475.480774 1109.044800,475.847046 1109.235229,475.683167 
	C1113.591187,471.934631 1117.648315,474.673676 1121.913818,475.947998 
	C1123.433472,476.401978 1125.372803,475.450684 1127.519043,475.223602 
	C1131.469971,481.937439 1134.840332,488.674591 1138.625122,495.170258 
	C1142.564575,501.931610 1146.447510,509.066956 1156.750610,507.728302 
	C1155.717651,512.972290 1153.105469,516.155762 1149.691040,518.946960 
	C1146.614990,521.461548 1143.431152,523.939636 1140.812012,526.892578 
	C1137.885376,530.192566 1136.285889,533.982056 1137.821777,538.806580 
	C1139.288330,543.413147 1137.407471,547.440430 1133.399170,550.063721 
	C1130.106079,552.218872 1128.227905,554.814087 1126.122070,558.361511 
	C1122.340576,564.731812 1118.176270,572.840210 1108.277222,572.421509 
	C1107.333252,572.381653 1106.366943,572.872559 1104.542725,573.339111 
	C1102.244141,568.190186 1099.920776,563.015625 1097.626587,557.828064 
	C1096.965820,556.333801 1096.104004,554.850464 1095.838135,553.276978 
	C1095.395996,550.661682 1094.412231,547.573914 1095.336914,545.399902 
	C1097.874512,539.434265 1096.118286,534.395996 1093.458618,529.251831 
	C1092.641113,527.670654 1091.311157,526.030884 1091.302124,524.411804 
	C1091.265503,517.839539 1087.738770,514.465759 1081.111572,514.888123 
	C1078.695801,515.042053 1076.243774,514.624207 1073.232910,514.053162 
	C1072.461426,513.558533 1072.265259,513.478088 1072.069214,513.397644 
	C1071.661987,512.856079 1071.254639,512.314575 1070.612793,511.661194 
z"/>
<path fill="#010403" opacity="1.000000" stroke="none" 
	d="
M1128.284912,473.761719 
	C1125.676147,473.393829 1123.306274,472.839264 1120.941162,472.264191 
	C1117.484863,471.423737 1114.516968,468.456848 1110.258057,471.523132 
	C1109.006226,472.424469 1102.957764,469.872681 1102.548096,468.105682 
	C1101.511353,463.635040 1098.788330,464.132385 1095.876587,464.031342 
	C1093.552368,463.950623 1091.223267,464.015045 1088.106934,464.015045 
	C1091.912231,460.238342 1095.163940,456.114197 1100.338989,457.905579 
	C1102.445190,458.634644 1106.965454,460.131592 1105.717651,465.501282 
	C1107.855347,464.099854 1109.993042,462.698395 1112.239990,461.225403 
	C1113.606689,462.814850 1115.604492,465.138245 1118.471558,468.472626 
	C1118.850708,464.859406 1119.048096,462.978210 1119.266235,460.898163 
	C1121.718872,467.402283 1121.718872,467.402283 1131.134277,467.154877 
	C1131.296021,469.121948 1131.458618,471.099915 1131.319580,473.303284 
	C1130.187256,473.541107 1129.356445,473.553467 1128.284912,473.761719 
z"/>
<path fill="#47BF86" opacity="1.000000" stroke="none" 
	d="
M1072.074219,513.636841 
	C1072.265259,513.478088 1072.461426,513.558533 1072.867798,513.879150 
	C1072.744995,514.038269 1072.412109,513.957153 1072.074219,513.636841 
z"/>
</svg>